<svg width="150" height="151" viewBox="0 0 150 151" fill="none" xmlns="http://www.w3.org/2000/svg">
<path d="M36.0673 22.4758C36.0459 22.8359 35.9342 23.1847 35.7428 23.4897C35.5513 23.7946 35.2862 24.0458 34.9723 24.2198C35.2389 24.6746 35.3648 25.199 35.3341 25.7261C35.3034 26.2532 35.1174 26.7592 34.7998 27.1794C34.489 27.5893 34.0742 27.9073 33.5991 28.1C33.124 28.2926 32.606 28.3528 32.0998 28.2742C31.9648 28.6441 31.6423 29.2859 31.2748 29.4067C31.2181 29.4364 31.155 29.452 31.0911 29.452C31.0271 29.452 30.964 29.4364 30.9073 29.4067C30.9964 29.9366 31.2447 30.4263 31.6189 30.8097C31.9931 31.1932 32.475 31.4518 32.9998 31.5509C34.7173 31.8604 36.3223 31.2942 36.3223 29.535C36.7333 29.6185 37.1575 29.6111 37.5654 29.5133C37.9733 29.4156 38.3552 29.2298 38.6848 28.9688C38.9195 28.7752 39.1139 28.5367 39.2568 28.2672C39.3996 27.9977 39.4882 27.7024 39.5173 27.3984C39.5923 25.4505 38.2498 24.1594 37.4173 24.1594C38.0248 23.0798 37.6348 22.1436 36.6673 21.4339C36.4207 21.2798 36.1448 21.1795 35.8573 21.1394C36.0123 21.5671 36.0837 22.0209 36.0673 22.4758V22.4758ZM21.0748 23.0345C21.1086 23.0345 21.1411 23.021 21.165 22.9969C21.1889 22.9728 21.2023 22.9402 21.2023 22.9061C21.2023 22.8721 21.1889 22.8394 21.165 22.8154C21.1411 22.7913 21.1086 22.7778 21.0748 22.7778L20.6173 22.7249C20.4748 22.7249 20.2423 22.7249 20.1073 22.6796C20.02 21.5715 20.02 20.4582 20.1073 19.3501C20.1058 19.3185 20.0934 19.2885 20.0723 19.2651C20.0512 19.2417 20.0226 19.2265 19.9916 19.222C19.9605 19.2175 19.9288 19.2241 19.902 19.2406C19.8753 19.2571 19.855 19.2824 19.8448 19.3123C19.5187 20.1529 19.373 21.0535 19.4173 21.9548C19.4055 22.2666 19.4333 22.5787 19.4998 22.8835C19.6798 23.3591 20.5873 23.1477 21.0748 23.0345ZM17.5948 18.6328C17.2348 18.731 16.7473 19.0858 16.9273 19.2217C17.1917 19.3439 17.4931 19.3575 17.7673 19.2595C18.0298 19.1915 18.4648 18.9273 18.4573 18.7914C18.4498 18.6555 17.9473 18.5347 17.5948 18.6328V18.6328ZM22.4548 19.1613C25.0948 19.7125 23.8723 18.7008 22.5748 18.5347C22.2373 18.4894 21.4498 18.5347 21.4648 18.7234C21.4798 18.9122 22.2523 19.116 22.4548 19.1613ZM23.0473 20.4297C23.0263 20.3924 22.9981 20.3596 22.9645 20.3333C22.9308 20.307 22.8922 20.2876 22.8511 20.2764C22.8099 20.2651 22.767 20.2622 22.7247 20.2678C22.6824 20.2734 22.6417 20.2874 22.6048 20.3089C22.4173 20.4146 22.4248 20.5279 22.4698 21.1394C22.4758 21.2255 22.5155 21.3057 22.5802 21.3624C22.6449 21.419 22.7293 21.4474 22.8148 21.4414C22.9003 21.4354 22.98 21.3955 23.0363 21.3303C23.0925 21.2652 23.1208 21.1802 23.1148 21.0941C23.1261 20.8705 23.1033 20.6464 23.0473 20.4297V20.4297ZM17.7373 20.845C17.7443 20.7589 17.717 20.6735 17.6614 20.6077C17.6059 20.5418 17.5266 20.5009 17.4411 20.4939C17.3555 20.4869 17.2707 20.5144 17.2053 20.5703C17.1399 20.6262 17.0993 20.706 17.0923 20.7921C17.0781 20.9756 17.0781 21.1598 17.0923 21.3433C17.0983 21.4294 17.138 21.5096 17.2027 21.5662C17.2674 21.6228 17.3518 21.6513 17.4373 21.6453C17.5228 21.6393 17.6025 21.5993 17.6588 21.5342C17.715 21.469 17.7433 21.3841 17.7373 21.298C17.7523 21.1394 17.7298 20.9356 17.7373 20.845ZM20.3398 25.76C20.3398 26.0016 21.2923 26.062 21.7873 25.5637C22.1548 25.1938 22.1323 24.6275 21.9823 24.5898C21.8323 24.552 21.9298 24.5898 21.3898 25.0579C21.0523 25.3448 20.3248 25.5713 20.3398 25.76V25.76Z" fill="white"/>
<path d="M145.933 19.4862C145.737 19.4225 145.53 19.4023 145.325 19.427C145.121 19.4518 144.924 19.5209 144.748 19.6297C144.892 19.284 144.941 18.9061 144.891 18.5349C144.756 17.9234 143.871 17.644 143.143 18.5349C143.098 18.0517 142.881 17.7195 142.498 17.6516C141.546 17.4704 141.133 19.2975 140.923 20.2563C140.428 19.8864 139.618 19.2597 139.213 19.7505C139.099 19.8736 139.022 20.0273 138.991 20.1932C138.961 20.3591 138.978 20.5303 139.041 20.6867C139.333 21.1997 139.748 21.6307 140.248 21.94C140.106 22.2722 139.498 23.148 139.183 23.6614C138.928 23.5859 138.388 23.4424 138.276 23.6614C135.643 27.2703 128.526 35.6357 124.093 35.462C117.246 35.1978 108.628 31.8607 107.766 31.9815L106.558 29.3163C107.887 28.4007 108.884 27.0761 109.401 25.5413C110.242 23.1987 110.624 20.7143 110.526 18.2254C110.532 17.4186 110.494 16.6121 110.413 15.8094C113.578 15.598 115.663 11.8456 113.196 8.74256C112.958 8.37051 112.648 8.05045 112.285 7.80141C111.921 7.55238 111.512 7.37947 111.081 7.29296C110.573 7.26631 110.064 7.33545 109.581 7.49681C106.581 8.25181 106.536 6.34166 104.481 5.82826C103.542 5.66984 102.577 5.77162 101.691 6.12271C98.691 7.17971 99.276 8.86336 97.8885 10.2677C97.1385 11.0227 93.936 9.95811 92.6385 12.1023C91.2585 14.4504 91.386 19.4183 93.3885 21.3662C93.8333 21.7684 94.3243 22.1156 94.851 22.4005C95.3368 22.9006 95.9053 23.3119 96.531 23.6161C97.116 24.8165 97.7835 28.2669 98.031 29.573L97.7985 31.536C96.199 31.7891 94.6217 32.1677 93.081 32.6685C90.5565 33.4911 88.1074 34.5318 85.761 35.7791C81.486 38.0441 82.011 37.9988 81.861 37.7572C81.3426 37.1892 80.7916 36.6523 80.211 36.1491C76.116 32.6761 71.676 29.7165 66.4335 28.8482L65.8185 25.3375C67.4685 23.9785 68.3685 21.2378 68.3985 19.2975C69.0135 19.5542 69.501 19.1012 69.8235 18.5425C69.9135 18.3764 70.476 18.5425 70.911 17.561C70.9862 17.3563 70.9862 17.1314 70.911 16.9268C71.0614 16.8363 71.1903 16.7138 71.2887 16.5678C71.3871 16.4219 71.4525 16.256 71.4804 16.0819C71.5082 15.9077 71.4979 15.7295 71.4501 15.5599C71.4022 15.3902 71.3181 15.2331 71.2035 15.0997C71.4345 14.9674 71.6323 14.7836 71.7818 14.5625C71.9314 14.3413 72.0285 14.0886 72.066 13.8237C72.231 12.8347 72.006 11.9438 71.061 11.6342C71.061 11.4153 71.2185 11.0529 71.2185 10.9774C71.2267 10.6258 71.1645 10.2761 71.0357 9.94927C70.9068 9.6224 70.7139 9.32499 70.4685 9.07476C69.426 8.17631 69.096 8.25181 68.4435 8.31976C68.4435 7.86676 68.7285 7.56476 68.256 6.94566C67.8936 6.52476 67.4112 6.22647 66.8744 6.09138C66.3376 5.95629 65.7725 5.99095 65.256 6.19066L65.0685 6.25106C64.9513 5.95436 64.7731 5.68596 64.5456 5.46346C64.3181 5.24096 64.0465 5.06939 63.7485 4.96001C62.811 4.60516 62.166 5.06571 61.3785 5.48096C60.201 4.42396 57.951 4.99021 56.7435 5.72256C56.196 6.05476 56.1435 6.64366 55.926 6.91546C55.4599 6.88126 54.9958 7.00339 54.606 7.26276C54.261 7.48171 53.9385 7.79881 53.661 8.01776C53.4781 8.16058 53.3273 8.34068 53.2185 8.54626C52.9863 8.9301 52.8523 9.36591 52.8285 9.81466C52.6441 9.8591 52.469 9.93577 52.311 10.0412C51.7118 10.5812 51.2906 11.2923 51.1035 12.0797C51.0217 12.5153 51.0633 12.9653 51.2235 13.3783C51.2235 13.4236 51.2985 13.5142 51.321 13.5595C51.171 13.7784 50.781 13.9521 50.706 14.541C50.631 15.1299 50.6535 16.285 51.2235 16.6323C51.4635 16.7758 51.9735 16.9268 52.1535 17.04C52.1251 17.3489 52.1251 17.6598 52.1535 17.9687C52.3485 19.2446 53.601 19.7052 54.891 19.5164L55.2435 19.6976C55.3805 21.0427 55.7352 22.3561 56.2935 23.5859C56.7098 24.3982 57.337 25.0818 58.1085 25.564L57.7485 28.7803C55.9584 29.0436 54.1994 29.4888 52.4985 30.1091C47.346 32.0041 44.3385 34.4654 41.676 38.7387C38.0085 35.681 31.7985 31.0981 26.9985 31.1812C27.0293 30.8547 27.0293 30.5261 26.9985 30.1997C26.9985 29.9807 26.8785 29.3088 26.676 29.2106C26.676 28.8407 26.616 28.4556 26.586 28.1008C28.281 30.6225 31.7385 29.2861 31.356 27.5647C31.7837 27.5932 32.212 27.5167 32.6039 27.3418C32.9959 27.1669 33.3397 26.8988 33.606 26.5606C33.8644 26.1888 34.0031 25.746 34.0031 25.2922C34.0031 24.8384 33.8644 24.3956 33.606 24.0238C33.5439 23.9231 33.4681 23.8316 33.381 23.752C34.551 23.45 34.956 22.929 35.106 22.1816C35.2267 21.6097 35.1824 21.0151 34.9785 20.4677C35.1119 20.4014 35.2377 20.3203 35.3535 20.2261C35.6972 19.8954 35.9305 19.4654 36.021 18.9955C36.2001 17.3594 35.8474 15.709 35.016 14.2918C34.7465 13.8192 34.3057 13.4701 33.786 13.3179C33.6884 12.8684 33.6307 12.4111 33.6135 11.9513C33.4897 11.2374 33.1977 10.5638 32.7618 9.98712C32.3259 9.41039 31.7589 8.94735 31.1085 8.63686C30.4782 8.3394 29.7942 8.17496 29.0985 8.15366C28.8062 8.12926 28.5122 8.16787 28.236 8.26691C27.7578 7.68469 27.13 7.24592 26.421 6.99851C25.045 6.74124 23.623 6.97627 22.401 7.66291C22.1535 7.82901 21.9585 8.15366 21.741 8.31221C21.207 8.08138 20.6281 7.97506 20.0475 8.00121C19.467 8.02736 18.8998 8.1853 18.3885 8.46321C17.8456 8.70266 17.3565 9.05016 16.9505 9.48482C16.5445 9.91947 16.23 10.4323 16.026 10.9925C15.711 11.7475 15.426 12.9857 15.906 13.635C15.9335 13.6709 15.9586 13.7088 15.981 13.7482C15.696 14.2541 15.0435 14.5032 14.826 15.9075C14.7374 16.6119 14.7653 17.3263 14.9085 18.0215C14.9484 18.1928 15.0437 18.3458 15.1795 18.4565C15.3153 18.5672 15.4838 18.6293 15.6585 18.6331C15.426 20.8981 15.4635 23.9181 16.6935 25.8735C16.9997 26.3309 17.357 26.7514 17.7585 27.1268C18.1778 27.5404 18.6936 27.8416 19.2585 28.0026V29.3465C18.8835 29.5579 19.146 30.7584 18.9885 31.4832C15.9435 31.2718 11.6835 31.9815 9.32097 33.9445C5.67597 36.9947 4.19097 41.2982 3.80097 46.0547C3.26847 52.6156 6.80097 56.6775 12.2835 57.3797C12.6279 58.5283 13.0335 59.6574 13.4985 60.7621C11.1819 65.1348 9.48781 69.8138 8.46597 74.6616C7.71597 78.7688 7.36347 85.2769 7.29597 91.5208C7.29597 94.4955 7.29597 105.654 8.28597 108.433C8.44347 108.871 9.11847 109.105 9.56097 109.233C10.7915 109.557 12.0453 109.785 13.311 109.913C13.626 116.541 14.5635 141.781 14.5635 141.819C13.2748 142.513 12.0884 143.385 11.0385 144.408C10.8717 144.558 10.7465 144.749 10.6755 144.962C10.6045 145.175 10.59 145.403 10.6335 145.624C10.7107 145.82 10.8557 145.982 11.0417 146.079C11.2277 146.176 11.4423 146.202 11.646 146.153C12.891 146.039 16.2435 145.028 17.7585 144.748C17.796 145.073 17.8485 145.39 18.1635 145.503C18.7035 145.692 19.7685 145.79 20.1585 145.299C20.5485 144.809 20.316 143.525 20.3685 142.974C20.4135 142.566 23.8335 118.814 25.0035 110.668H25.941C27.381 118.512 31.3185 140.943 31.326 140.981C30.5463 141.577 29.8072 142.225 29.1135 142.921C28.536 143.51 27.5685 144.567 27.951 145.292C28.3335 146.017 29.2335 145.647 29.991 145.367C31.491 144.839 33.741 143.82 34.8885 143.442C34.971 143.752 35.0685 144.061 35.391 144.129C35.8385 144.197 36.295 144.174 36.7335 144.061C37.371 143.872 37.4835 143.472 37.4835 142.808C37.206 139.463 37.1985 150.011 37.4235 110.517C38.2551 110.483 39.0791 110.343 39.876 110.101C41.9985 109.052 41.8035 78.3913 39.0435 68.7424C38.856 68.078 37.671 64.6126 36.831 62.4608C36.8573 62.3876 36.8573 62.3075 36.831 62.2343C36.5844 61.609 36.3065 60.9967 35.9985 60.3997C36.2235 57.6213 36.4635 52.2608 36.6885 50.6375L38.556 51.9286C38.7091 52.5361 38.9253 53.1257 39.201 53.6877C39.5082 54.4992 40.0016 55.2262 40.641 55.8093C41.4488 56.5585 42.4103 57.12 43.4575 57.4539C44.5046 57.7879 45.6119 57.8863 46.701 57.7421H47.961C49.416 66.4397 48.996 65.5261 49.2135 65.7451C43.686 84.9221 41.901 121.298 42.651 139.735C42.6509 139.823 42.68 139.908 42.7335 139.977C43.116 140.467 45.501 140.732 46.2885 140.868C44.8092 141.662 43.4014 142.584 42.081 143.623C41.4135 144.28 42.291 145.511 43.1085 145.722C43.5585 145.843 49.6785 144.967 50.1435 144.899C50.2035 145.186 50.3385 145.466 50.6235 145.518C51.4257 145.657 52.2397 145.716 53.0535 145.692C53.3835 145.692 53.8035 145.616 53.8785 145.299C54.129 144.043 54.2745 142.768 54.3135 141.487C54.846 141.487 55.3785 141.487 55.551 141.336C57.051 139.826 63.7485 101.404 64.296 98.3007C64.4821 97.2597 64.53 96.1984 64.4385 95.1448C63.351 82.1965 63.756 87.5268 63.5835 82.5363C63.5906 82.5066 63.6074 82.4802 63.6312 82.4613C63.655 82.4424 63.6844 82.4322 63.7147 82.4322C63.745 82.4322 63.7745 82.4424 63.7983 82.4613C63.8221 82.4802 63.8389 82.5066 63.846 82.5363C64.3485 88.4706 64.6485 88.6744 65.0535 96.4962C65.0535 97.0323 71.166 139.131 72.2685 140.233C72.8556 140.478 73.4856 140.601 74.121 140.596C74.0493 142.221 74.1778 143.849 74.5035 145.443C74.5243 145.503 74.557 145.558 74.5995 145.604C74.6421 145.651 74.6936 145.689 74.751 145.715C75.2985 145.986 77.346 145.715 77.751 145.662C77.8797 145.613 77.9926 145.529 78.0772 145.42C78.1619 145.311 78.2151 145.18 78.231 145.043C78.8685 145.133 84.8235 145.979 85.2585 145.866C86.076 145.654 86.961 144.424 86.286 143.759C84.724 142.557 83.0629 141.491 81.321 140.573C82.221 140.505 84.111 140.339 84.891 139.879C86.0685 139.176 84.9435 86.5076 75.4935 64.907C75.666 64.6277 76.326 56.8738 76.356 56.5265C78.7266 56.4458 81.0236 55.6777 82.971 54.3144L85.971 53.2272C84.1442 60.2343 82.7737 67.354 81.8685 74.5408C81.696 75.9602 80.826 83.0119 81.7635 84.0689C81.8602 84.1785 81.9937 84.2484 82.1385 84.2652C82.566 84.303 84.276 84.454 86.0985 84.5672C86.0985 106.228 88.2135 117.855 91.626 140.664C91.6366 140.734 91.6719 140.799 91.7254 140.846C91.779 140.893 91.8474 140.919 91.9185 140.92H92.1135C92.2548 141.972 92.4831 143.01 92.796 144.023C93.2685 144.982 100.596 144.96 101.631 144.627C101.812 144.534 101.955 144.381 102.037 144.194C102.119 144.007 102.134 143.798 102.081 143.601C101.781 142.257 99.081 141.962 97.806 140.996H98.2485C98.3176 140.998 98.3852 140.975 98.4399 140.933C98.4946 140.89 98.5329 140.83 98.5485 140.762L104.286 111.853C104.353 112.276 108.388 141.298 108.388 141.298C108.401 141.374 108.441 141.443 108.5 141.491C108.56 141.54 108.634 141.565 108.711 141.562H109.303C109.409 142.626 109.579 143.683 109.813 144.726C109.825 144.773 109.847 144.818 109.878 144.856C109.91 144.894 109.949 144.924 109.993 144.945C110.743 145.299 117.336 145.7 118.423 145.103C118.621 144.995 118.771 144.817 118.845 144.603C118.918 144.389 118.91 144.156 118.821 143.948C118.633 143.422 118.297 142.963 117.853 142.627C116.946 142.121 115.363 142.008 114.516 141.562H114.936C115.008 141.558 115.076 141.531 115.131 141.485C115.187 141.438 115.226 141.376 115.243 141.305C115.243 141.305 117.426 133.235 118.708 114.669C119.458 103.842 119.668 92.7741 119.586 82.0682C120.546 82.1437 122.181 82.2192 122.991 82.1814C123.216 82.1814 123.433 82.1814 123.531 81.9625C124.401 80.2184 123.741 62.8836 123.253 58.5122C123.208 58.0894 122.136 50.9093 121.993 49.9731C124.491 49.875 128.098 49.3389 130.146 47.8667C140.646 40.3167 142.648 27.4213 143.503 25.6923C143.586 25.5111 143.383 25.4205 142.881 25.1714C143.169 24.3095 143.513 23.4672 143.908 22.6497C144.951 22.0683 146.158 21.4039 146.241 20.2035C146.281 20.0666 146.272 19.9199 146.216 19.789C146.16 19.658 146.06 19.5509 145.933 19.4862V19.4862ZM71.136 11.7777C71.076 11.7777 71.061 11.7324 71.061 11.6569C71.061 11.5814 71.2035 11.7777 71.136 11.7777ZM98.7435 40.4677C102.448 40.7017 104.653 40.7319 108.418 40.7093C108.658 42.174 108.928 43.7746 109.221 45.4733C107.203 45.4733 100.363 45.5488 98.586 45.5186C98.6685 43.8576 98.7285 42.1589 98.7435 40.4828V40.4677ZM97.761 56.2698C102.126 56.5265 105.366 56.5945 111.163 56.4737C111.553 58.6254 111.958 60.7998 112.318 62.71C108.808 62.8157 100.708 62.9591 97.0635 62.8534C97.206 61.653 97.4985 58.7387 97.761 56.2849V56.2698ZM96.7485 65.2845C102.463 65.6167 107.038 65.6318 112.851 65.4582C113.136 66.9078 113.413 68.3121 113.683 69.6333C107.053 69.89 100.566 69.9051 95.9535 69.8145C96.2585 68.3196 96.5235 66.8096 96.7485 65.2845ZM110.676 53.7557C108.426 53.801 100.176 53.8916 97.986 53.8614C98.181 51.7021 98.331 49.7466 98.4435 47.9724C102.043 48.1989 104.488 48.2819 109.693 48.2215C109.873 49.2181 110.533 52.9252 110.676 53.7557ZM107.451 33.5972C107.541 34.8354 107.811 36.7531 107.998 37.9837C106.086 37.9837 100.236 38.0517 98.736 38.029C98.7209 36.4792 98.6183 34.9314 98.4285 33.3933C100.453 36.134 105.921 35.7565 107.451 33.5972V33.5972ZM95.451 72.223C101.717 72.6035 107.998 72.6514 114.268 72.3664C114.553 73.6952 114.816 74.9032 115.063 75.9602C113.878 75.8923 99.8685 75.2052 94.7685 74.9561C94.9785 74.0954 95.2035 73.1818 95.4285 72.223H95.451ZM97.0935 23.3367C96.831 22.8082 95.166 22.5817 95.0085 21.2454C94.8285 19.6825 96.636 19.6297 97.2585 20.3318C97.311 20.3847 97.6785 20.883 97.7235 20.9434C98.1135 21.4719 98.4735 21.487 98.5935 20.732C98.766 19.3277 98.3385 16.5191 99.966 16.8135C101.129 17.1807 102.325 17.4335 103.536 17.5685C105.838 17.7799 107.668 17.5685 109.153 15.9075C109.318 15.8698 109.866 15.8471 110.061 15.832C110.129 16.6304 110.149 17.4321 110.121 18.2329C110.172 20.6565 109.754 23.067 108.891 25.3299C107.698 28.2065 106.048 28.9011 106.048 28.9011C106.01 28.9158 105.975 28.938 105.946 28.9666C105.916 28.9951 105.892 29.0293 105.876 29.0672C105.808 29.2408 105.786 29.0672 107.196 32.2457C107.496 34.9864 99.4335 36.1038 98.391 31.8003L98.646 29.6032C98.676 29.4447 97.7835 24.7486 97.071 23.3367H97.0935ZM80.5935 36.9267C82.965 39.297 84.5991 42.3115 85.296 45.6017C85.7385 47.8667 85.551 49.7693 84.816 51.0754C84.3345 51.9144 83.733 52.6776 83.031 53.3404C82.295 54.0977 81.3973 54.6761 80.406 55.0316C78.3238 55.8004 76.0897 56.0592 73.8885 55.7866C70.9609 55.4141 68.0704 54.7902 65.2485 53.9218C65.2485 53.6953 65.2035 53.4537 65.181 53.1668L67.7685 52.2155C68.264 52.0767 68.744 51.8869 69.201 51.6492C69.4635 51.5133 69.486 51.1132 69.516 50.7734C69.6435 49.5352 69.3885 49.7013 69.7635 49.3993C70.6035 48.7349 72.9135 48.0856 73.9185 47.7987C74.256 47.7081 74.7435 47.6326 74.5935 47.308C74.5459 46.8442 74.3573 46.4065 74.0535 46.0547C72.471 39.305 72.741 39.3276 72.486 39.3729C72.4686 39.3745 72.4518 39.3799 72.4368 39.3887C72.4217 39.3975 72.4087 39.4095 72.3987 39.4239C72.3887 39.4383 72.382 39.4547 72.3789 39.4719C72.3758 39.4892 72.3765 39.5069 72.381 39.5239C72.7185 41.5322 73.221 44.1294 73.581 45.881L72.651 45.7451C72.4935 45.7451 72.336 45.7451 72.2985 45.6696C71.9985 45.043 72.126 44.3031 71.406 43.9407C71.331 43.8898 71.2463 43.8554 71.1572 43.8397C71.0682 43.8239 70.9769 43.8272 70.8892 43.8493C70.8015 43.8713 70.7194 43.9117 70.6482 43.9678C70.577 44.0238 70.5184 44.0943 70.476 44.1747C70.086 44.9297 70.5585 46.6209 70.476 46.5983C70.0766 46.763 69.6584 46.8772 69.231 46.938C69.2137 46.8688 69.183 46.8038 69.1405 46.7468C69.098 46.6898 69.0446 46.6418 68.9835 46.6058C67.4618 45.8572 65.8784 45.2433 64.251 44.7712C63.8985 41.7965 63.4335 38.0517 63.2685 36.7984C63.326 36.7714 63.3791 36.7358 63.426 36.6927C63.6906 36.1671 63.8848 35.6086 64.0035 35.0317C64.131 35.1751 64.236 35.311 64.4685 35.2204C66.5032 33.7319 68.4259 32.0941 70.221 30.3205C74.0255 31.9013 77.5336 34.1253 80.5935 36.8965V36.9267ZM71.0985 44.5447C71.6385 44.8542 71.346 45.7753 71.9535 46.2359C72.5622 46.4155 73.1942 46.502 73.8285 46.4926C73.9772 46.7415 74.0718 47.0195 74.106 47.308C73.521 47.4892 70.6785 48.1234 69.4935 48.9463C69.4692 48.3764 69.4066 47.8089 69.306 47.2476C69.921 47.1947 70.6935 47.2476 70.9185 46.8474C71.1435 46.4473 70.761 44.3408 71.0985 44.5447ZM69.651 30.1997C68.3085 31.3699 65.301 33.8765 64.401 34.5409C63.951 34.0351 62.7735 32.6308 62.4435 32.1174C63.1935 31.4681 65.9685 29.5806 66.3735 29.3541C67.4938 29.488 68.5942 29.7567 69.651 30.1544V30.1997ZM57.8385 29.3012L61.4985 32.14C60.9435 32.7365 59.586 33.9218 58.9785 34.5409C58.1235 33.9218 55.791 31.4379 54.4785 30.0638C55.5805 29.7352 56.703 29.4804 57.8385 29.3012V29.3012ZM55.7985 19.305C55.6935 19.154 55.6785 19.1993 54.9135 18.7916C54.411 18.3764 53.8035 18.0366 53.5785 17.4175C53.5785 16.9041 53.736 16.2699 54.2685 16.3001C54.6711 16.3935 55.0446 16.5854 55.356 16.8588C55.6964 16.9712 56.0623 16.9788 56.4071 16.8806C56.7518 16.7824 57.0595 16.5829 57.291 16.3077C57.5509 15.8365 57.6283 15.2852 57.5085 14.7599C58.0019 14.7155 58.459 14.48 58.7835 14.1031C58.9435 13.7772 59.0403 13.4236 59.0685 13.0612C59.7699 13.2618 60.5193 13.2056 61.1835 12.9026C61.6374 12.7057 62.0518 12.4268 62.406 12.0797C62.4845 12.2783 62.5878 12.466 62.7135 12.6384C62.8301 12.8179 62.9927 12.9624 63.1841 13.0568C63.3755 13.1511 63.5886 13.1918 63.801 13.1744C64.0657 13.1321 64.3202 13.0399 64.551 12.9026V13.2046C64.547 13.4362 64.5935 13.6658 64.6872 13.8774C64.7808 14.0889 64.9194 14.2772 65.0931 14.4291C65.2668 14.5809 65.4715 14.6926 65.6927 14.7563C65.9139 14.82 66.1463 14.8341 66.3735 14.7977C66.3689 14.8479 66.3689 14.8984 66.3735 14.9487C66.4485 15.3564 66.291 16.587 66.8535 16.7305C67.416 16.8739 67.1085 15.4621 68.1885 15.2884C68.3825 15.2407 68.587 15.263 68.7665 15.3512C68.946 15.4395 69.0891 15.5882 69.171 15.7716C69.381 16.4511 69.171 16.7531 68.8185 17.4251L68.586 17.6893C68.226 18.0819 67.836 18.4972 67.836 18.8747C67.8584 20.0295 67.6413 21.1764 67.1985 22.242C66.8173 23.3221 66.1478 24.2756 65.2635 24.9977C65.2195 25.0318 65.1852 25.077 65.1641 25.1287C65.143 25.1804 65.1359 25.2368 65.1435 25.2922L65.7585 28.9237L61.8735 31.5813C61.191 31.0528 62.0985 31.838 58.3635 28.9313L58.7685 25.4205C58.7754 25.3561 58.7635 25.291 58.7342 25.2334C58.7049 25.1757 58.6594 25.1279 58.6035 25.0959C55.911 23.5783 56.121 19.826 55.7985 19.305V19.305ZM47.0985 33.5745C49.1504 32.0953 51.4312 30.9677 53.8485 30.2374C55.2215 31.8278 56.6812 33.3401 58.221 34.7674C58.551 35.0543 58.971 35.4092 59.2635 35.1072C59.3685 34.9864 59.526 34.8278 59.706 34.6466C59.8931 35.3018 60.1134 35.9469 60.366 36.5794C60.3959 36.6354 60.4364 36.6848 60.4853 36.725C60.5342 36.7652 60.5905 36.7952 60.651 36.8135C60.5685 37.7874 60.366 40.5885 60.1335 43.6915C57.754 43.1774 55.3208 42.9593 52.8885 43.0422C52.8885 42.8459 53.1285 40.5205 53.136 40.445C53.136 40.0373 53.136 39.5013 53.181 39.2899C53.1899 39.2568 53.1855 39.2216 53.1686 39.1918C53.1517 39.1621 53.1238 39.1403 53.091 39.1313C53.0582 39.1223 53.0231 39.1268 52.9936 39.1438C52.964 39.1608 52.9424 39.1889 52.9335 39.2219C52.266 40.5885 52.386 41.5549 52.476 43.0649C50.7984 43.1484 49.154 43.5667 47.6385 44.2955C47.6076 44.3115 47.5844 44.3392 47.5738 44.3725C47.5633 44.4058 47.5663 44.4419 47.5822 44.4729C47.5981 44.504 47.6256 44.5274 47.6587 44.538C47.6917 44.5486 47.7276 44.5456 47.7585 44.5296C53.0085 41.9475 62.5335 44.3937 67.596 46.5907C67.9491 46.7364 68.2924 46.9054 68.6235 47.0966C68.8545 48.2871 68.9251 49.5035 68.8335 50.713C68.8335 51.0528 68.8335 51.1358 68.2335 51.3699C67.806 51.5435 67.296 51.6643 66.981 51.7851C65.9535 52.1702 64.9635 52.5401 63.981 52.9176C58.4348 54.7096 52.7676 56.0973 47.0235 57.0701C45.156 57.0701 42.696 56.7228 41.3235 55.4242C35.3835 49.8297 41.5935 37.3797 47.0985 33.5745V33.5745ZM18.9885 27.1797C18.2914 26.775 17.6961 26.2144 17.2485 25.5413C16.0785 23.7142 16.0635 20.7244 16.2585 18.5651C17.3063 18.2368 18.2588 17.6563 19.0335 16.8739C19.872 16.0113 20.6047 15.0506 21.216 14.0125L21.636 13.1971C22.3963 15.1548 23.6976 16.8526 25.386 18.0895C25.973 18.36 26.6081 18.5089 27.2535 18.5274C27.2388 19.1195 27.3018 19.711 27.441 20.2865C27.4559 20.317 27.477 20.3441 27.5027 20.3661C27.5285 20.3881 27.5585 20.4045 27.5908 20.4144C27.6231 20.4243 27.6571 20.4275 27.6907 20.4237C27.7242 20.4198 27.7567 20.4091 27.786 20.3922C28.116 20.211 28.2435 19.2371 28.7535 18.5651C28.8885 18.3764 29.046 18.2329 29.241 18.2782C29.4466 18.3099 29.642 18.3901 29.811 18.5123C30.561 19.071 29.961 21.3058 28.5585 22.0004C28.1385 22.2118 25.9485 24.7788 25.806 25.5866C25.7121 26.0303 25.7354 26.4911 25.8735 26.923C25.9185 27.5798 25.9935 28.433 26.046 29.188C24.6585 29.188 21.276 29.188 19.8885 29.2559C19.956 27.3911 19.9935 27.5874 18.9885 27.1797V27.1797ZM32.9985 110.071H27.336C28.1985 99.3199 29.2485 72.9553 29.0235 63.616C30.0235 63.5707 30.9235 63.5103 31.7235 63.4348C33.4335 72.3362 34.386 101.366 32.9985 110.071V110.071ZM14.2485 109.384C13.4385 100.377 14.2485 71.1433 16.3935 63.3291C16.7685 63.3819 19.4535 63.6235 19.4535 63.6235C18.3135 72.8496 17.1435 99.3275 17.5485 109.679C16.3335 109.588 15.2235 109.475 14.2035 109.384H14.2485ZM22.5435 63.0724L19.7235 62.9591C19.7169 62.1454 19.7746 61.3325 19.896 60.528L20.9085 60.4525L23.0985 60.3997C22.9906 61.305 22.8049 62.1993 22.5435 63.0724ZM13.8585 60.5884L19.2885 60.4827C19.1364 61.3143 19.0661 62.1589 19.0785 63.0044C17.0409 62.9878 15.0094 62.778 13.011 62.3778C13.566 61.1547 13.7985 60.7394 13.8585 60.5884ZM19.971 109.814C19.7235 100.392 21.246 71.5661 22.221 63.6613C23.2485 63.6613 24.0135 63.7141 26.1435 63.6613C26.1435 67.24 25.0785 105.564 24.831 109.98C23.5485 109.98 20.301 109.837 19.971 109.814V109.814ZM23.121 63.0799C23.305 62.1986 23.3955 61.3002 23.391 60.3997C28.3185 60.3091 33.141 60.1883 35.316 60.4827C35.6123 61.0087 35.8632 61.5594 36.066 62.1286C31.8285 63.0422 27.0735 63.0799 23.121 63.0799V63.0799ZM8.99847 108.342C7.70097 107.512 7.28097 84.0765 8.87097 74.7296C9.67967 70.546 11.0234 66.4856 12.8685 62.6496L13.656 62.8157C11.556 70.4487 10.716 98.1874 11.7585 109.029C10.8114 108.929 9.88258 108.698 8.99847 108.342V108.342ZM19.851 142.317C17.766 142.604 16.641 142.77 15.8235 142.951C15.3544 142.996 14.8853 142.867 14.5035 142.589C15.1185 142.219 15.2535 142.272 15.2535 141.917C15.321 140.452 13.836 112.85 13.656 109.928C17.076 110.32 21.351 110.532 24.771 110.63C23.6085 117.832 20.3835 138.625 19.8285 142.34L19.851 142.317ZM36.636 140.762C34.731 141.298 33.5385 141.645 32.736 141.947C32.2767 142.057 31.7935 141.992 31.3785 141.766C31.9185 141.336 32.031 141.366 32.001 141.011C31.866 139.501 26.5785 112.193 26.2785 110.675C30.5235 110.766 34.5285 110.72 37.131 110.539C36.9585 119.018 36.6585 137.304 36.6135 140.784L36.636 140.762ZM38.541 68.8783C41.046 77.81 41.301 105.118 39.6135 109.505C38.9835 109.822 36.156 109.943 35.466 109.973C36.966 100.573 36.216 72.223 34.4985 63.0648C35.2035 62.9516 35.8335 62.8308 36.4185 62.7024C37.251 64.9901 38.346 68.2819 38.5185 68.901L38.541 68.8783ZM33.246 46.8097C32.9235 46.5152 32.6085 46.251 32.3385 45.9641C32.3176 45.937 32.2869 45.9195 32.2531 45.9152C32.2194 45.911 32.1853 45.9204 32.1585 45.9414C32.1316 45.9624 32.1142 45.9933 32.1099 46.0273C32.1057 46.0613 32.1151 46.0956 32.136 46.1226C33.4185 48.2366 35.196 49.2559 36.1485 50.1241C35.9085 51.0452 35.661 56.5643 35.3985 59.8334C33.4185 59.3729 23.076 59.9165 19.6035 59.9165C19.5243 59.9176 19.4489 59.9502 19.3935 60.0071C16.6635 60.1354 14.511 60.2638 13.911 60.3015C13.551 59.4559 13.101 58.0894 12.8235 57.2211C14.0397 57.441 15.286 57.4307 16.4985 57.1909C16.5193 57.6499 16.6183 58.1019 16.791 58.5273C17.166 58.8595 29.646 57.961 30.0435 57.878C30.3135 57.8176 30.321 57.4401 30.3435 57.123C30.411 56.368 30.456 54.707 30.486 52.7591C30.602 52.7125 30.7067 52.641 30.7926 52.5497C30.8786 52.4584 30.9438 52.3493 30.9837 52.2301C31.0236 52.1109 31.0374 51.9844 31.024 51.8593C31.0105 51.7343 30.9703 51.6136 30.906 51.5058C30.9937 51.3933 31.0577 51.264 31.094 51.1258C31.1303 50.9875 31.1381 50.8433 31.1171 50.7019C31.096 50.5605 31.0464 50.4249 30.9714 50.3035C30.8965 50.1821 30.7976 50.0773 30.681 49.9958C30.7779 49.9006 30.8517 49.7841 30.8965 49.6555C30.9413 49.5269 30.9559 49.3895 30.9392 49.2543C30.9225 49.119 30.8749 48.9894 30.8002 48.8758C30.7255 48.7621 30.6256 48.6674 30.5085 48.599C30.5085 45.8735 30.5085 43.2159 30.411 41.7285C30.366 40.5054 30.3285 40.3695 30.141 40.2185C29.7735 39.992 28.191 40.0826 27.4785 40.1128C27.4883 39.7926 27.4021 39.4769 27.231 39.2068C26.886 38.8671 25.3635 39.2068 24.4785 39.2068C24.2835 38.5802 24.186 38.1121 23.496 37.7874C23.1563 37.6666 22.7842 37.677 22.4517 37.8164C22.1192 37.9559 21.8499 38.2146 21.696 38.5424C21.696 38.6179 21.4785 39.237 21.4335 39.4409C20.6287 39.5022 19.8276 39.6055 19.0335 39.7504C18.7485 39.841 18.726 40.445 18.7185 40.8678C15.861 41.1698 15.6735 41.1698 15.621 41.4643C15.5685 41.7587 15.7785 46.5605 15.7935 46.9607C15.0922 47.0503 14.398 47.189 13.716 47.3759C13.8579 46.4382 13.943 45.4927 13.971 44.5447C13.971 44.1294 14.0085 42.3552 13.761 42.3476C13.5135 42.3401 13.3635 44.0841 13.341 44.4314C13.296 44.9599 13.2285 46.9305 13.266 47.5194C12.951 47.6175 12.651 47.7232 12.3435 47.844C12.3116 47.856 12.2859 47.8803 12.2718 47.9114C12.2577 47.9426 12.2565 47.9781 12.2685 48.0101C12.2804 48.0421 12.3045 48.0681 12.3354 48.0823C12.3664 48.0964 12.4016 48.0976 12.4335 48.0856C16.671 46.6134 22.4085 47.4363 25.551 49.0218L25.6935 52.2004C22.9785 54.1105 18.6585 56.4737 15.3585 56.8965C14.3853 57.0097 13.4013 56.9894 12.4335 56.8361C6.74847 56.0962 3.81597 51.9965 4.22847 46.1075C4.55097 41.5247 5.99847 37.0928 9.49347 34.1559C11.7435 32.2759 16.041 31.6342 18.966 31.8909C19.716 31.9513 19.311 30.3205 19.506 29.7316C19.791 29.6863 20.6985 29.6712 21.006 29.6636C20.9688 30.1839 20.9688 30.7062 21.006 31.2265C21.006 31.4454 21.1635 32.2684 21.3585 32.208C21.5535 32.1476 21.6285 31.5058 21.636 31.3246C21.6435 31.1434 21.636 31.1208 21.5685 29.6636H24.066C24.0358 30.1665 24.0358 30.6707 24.066 31.1736C24.066 31.3926 24.2235 32.2155 24.4185 32.1551C24.6135 32.0947 24.6885 31.453 24.696 31.2718C24.7035 31.0906 24.696 30.7131 24.6285 29.6787H26.4585C26.5335 29.9235 26.5739 30.1776 26.5785 30.4337C26.5785 31.3095 26.4285 31.4379 26.5785 31.6115C26.9835 32.0721 30.6585 30.245 41.406 39.2521C39.4035 42.6496 37.821 47.0966 38.406 51.015C36.6585 49.8297 36.996 50.1996 33.246 46.8097V46.8097ZM16.3335 46.8776C16.2585 44.3484 16.1985 42.0381 16.1985 41.7587C16.791 41.6681 18.1335 41.5322 18.726 41.4718C18.726 42.5817 18.771 42.6572 19.476 42.7327C20.8185 42.8912 26.736 42.7327 27.3585 42.1966C27.4149 42.1506 27.4588 42.0908 27.486 42.023C27.5335 41.607 27.5436 41.1875 27.516 40.7697C28.2479 40.7281 28.9816 40.7281 29.7135 40.7697C29.856 42.1136 29.871 47.0739 29.871 48.4254C29.5893 48.4279 29.3093 48.4685 29.0385 48.5462C29.1435 47.9271 29.301 46.9229 28.6785 46.787C28.5118 46.739 28.3349 46.7414 28.1696 46.7937C28.0042 46.846 27.8578 46.9461 27.7485 47.0815C27.4237 47.5857 27.2326 48.1654 27.1935 48.7651C26.8501 48.7662 26.5069 48.7461 26.166 48.7047C26.1544 48.6639 26.1344 48.6259 26.1072 48.5934C26.0801 48.5609 26.0464 48.5345 26.0085 48.516C22.9879 47.1068 19.6443 46.5484 16.3335 46.9003V46.8776ZM30.4335 51.0528C30.141 51.2264 29.9535 51.1056 29.4285 51.1736C29.3469 51.1736 29.2687 51.2062 29.211 51.2642C29.1534 51.3223 29.121 51.401 29.121 51.4831C29.121 51.5652 29.1534 51.6439 29.211 51.702C29.2687 51.76 29.3469 51.7927 29.4285 51.7927C29.6778 51.8184 29.9291 51.8184 30.1785 51.7927C30.2385 51.7927 30.456 51.838 30.456 51.8984C30.456 52.5854 29.1135 52.3212 28.521 51.9739C27.787 51.9286 27.0504 51.9999 26.3385 52.1853L26.1885 49.0747C26.5965 49.1847 27.0221 49.2129 27.441 49.1577C27.499 49.125 27.5421 49.0709 27.561 49.0067C27.7335 48.3725 27.876 47.2023 28.536 47.3684C28.5747 47.8438 28.5264 48.3223 28.3935 48.7802C28.3185 49.2483 28.4985 49.354 28.851 49.3238C29.166 49.1814 29.5038 49.097 29.8485 49.0747C30.0435 49.0747 30.2385 49.0747 30.2985 49.3012C30.3585 49.5277 30.1635 49.6107 29.976 49.6787C29.7885 49.7466 29.0535 49.8523 28.9785 49.8674C28.9043 49.8909 28.8411 49.9406 28.8005 50.0073C28.7598 50.074 28.7445 50.1532 28.7572 50.2304C28.77 50.3076 28.8101 50.3776 28.87 50.4274C28.93 50.4772 29.0058 50.5036 29.0835 50.5016C29.991 50.4035 29.8335 50.3582 30.1035 50.4186C30.2211 50.4463 30.3256 50.514 30.3993 50.6103C30.4731 50.7066 30.5117 50.8255 30.5085 50.9471C30.5097 50.9735 30.5033 50.9997 30.49 51.0225C30.4767 51.0453 30.457 51.0637 30.4335 51.0754V51.0528ZM26.301 52.4948C26.9624 52.4067 27.6288 52.3613 28.296 52.3589C28.7642 52.6565 29.3026 52.8232 29.856 52.8421C29.856 54.1936 29.856 56.6171 29.766 57.3268C28.131 57.5005 18.5985 58.4367 16.9635 58.2857C16.8769 57.8979 16.8192 57.5042 16.791 57.1079C20.931 56.2472 26.091 52.9176 26.301 52.5175V52.4948ZM53.301 144.99C52.4461 145.046 51.5877 145 50.7435 144.854V144.476C50.7348 144.386 50.6918 144.302 50.6235 144.242C50.421 144.084 50.5785 144.197 45.3285 144.869L43.611 145.065C43.446 145.065 43.2585 145.148 43.2585 145.065C42.8535 144.96 42.261 144.242 42.5085 143.978C43.91 142.846 45.3886 141.814 46.9335 140.89C49.266 141.17 52.056 141.366 53.781 141.419C53.7046 142.626 53.5468 143.827 53.3085 145.013L53.301 144.99ZM78.6435 140.641C79.341 140.641 80.0385 140.603 80.706 140.566C81.7185 141.192 85.0635 143.268 85.8885 144.122C86.0235 144.265 85.8885 144.544 85.7685 144.703C85.2885 145.367 84.921 145.201 84.786 145.186C83.511 145.08 79.2885 144.484 78.036 144.303C77.9924 144.296 77.9481 144.299 77.9056 144.311C77.8631 144.322 77.8235 144.343 77.789 144.37C77.7546 144.398 77.7261 144.432 77.7054 144.471C77.6847 144.51 77.6721 144.553 77.6685 144.597V144.975C76.8276 145.128 75.9711 145.176 75.1185 145.118C74.8152 143.648 74.6594 142.15 74.6535 140.649C74.6385 140.43 74.4135 140.739 78.651 140.664L78.6435 140.641ZM74.9985 64.4767C71.151 64.4767 52.851 64.9372 49.731 65.2921C49.656 64.0086 48.786 58.7311 48.576 57.4627C52.1957 56.8356 55.7806 56.0191 59.316 55.0165C59.2278 55.5299 59.2051 56.0526 59.2485 56.5718C60.1525 57.6707 61.1569 58.6818 62.2485 59.5918C62.3049 59.6367 62.3724 59.6653 62.4437 59.6746C62.515 59.6839 62.5875 59.6736 62.6535 59.6447C63.7259 58.7434 64.6454 57.6724 65.376 56.4737C65.4072 55.8492 65.3644 55.2231 65.2485 54.6088C67.3335 55.3638 72.9885 56.5567 75.8235 56.5114C75.6885 58.0743 75.1185 63.6764 74.9985 64.4767V64.4767ZM82.9485 71.4453C84.8685 58.1347 86.661 53.7255 86.6985 52.744C87.8868 52.2237 88.9934 51.5319 89.9835 50.6904C90.3726 50.3427 90.7384 49.9694 91.0785 49.573C91.206 49.4522 91.0335 49.2634 90.9135 49.3767C90.7935 49.4899 90.501 49.6485 90.291 49.7844C87.741 51.5058 87.156 52.1324 84.1635 53.2045C84.8171 52.5546 85.3125 51.7613 85.611 50.8867C86.9235 46.4246 85.116 41.8267 82.2435 38.2102C85.6687 36.0802 89.3123 34.3286 93.111 32.9856C94.6091 32.4801 96.1436 32.0914 97.701 31.8229C97.7572 32.1533 97.8608 32.4737 98.0085 32.7742C99.2085 40.1959 96.8385 61.7964 95.4285 68.9689C94.611 73.1365 93.051 79.2143 91.2585 83.1025C91.1389 83.3907 90.9959 83.6685 90.831 83.933C89.886 84.2501 83.256 83.6914 82.2285 83.5933C81.4635 82.1965 82.731 73.061 82.9635 71.4453H82.9485ZM114.673 140.905H108.981C108.981 140.679 104.751 110.562 104.631 110.147C105.111 107.044 108.381 90.3958 108.268 86.2358C108.268 86.2017 108.255 86.1691 108.231 86.145C108.207 86.1209 108.175 86.1074 108.141 86.1074C108.107 86.1074 108.075 86.1209 108.051 86.145C108.027 86.1691 108.013 86.2017 108.013 86.2358C108.013 86.6737 107.878 87.5193 107.698 88.6442C104.916 106.13 102.778 116.202 97.9935 140.392L92.2035 140.331C88.4085 116.171 86.5485 104.454 86.451 84.5974C87.246 84.6427 90.546 84.8541 91.1835 84.5295C91.4085 84.4162 91.641 83.9104 91.7835 83.6159C92.9095 81.0284 93.8372 78.358 94.5585 75.628C99.696 75.9149 112.896 76.534 115.168 76.6548C116.136 81.2452 116.203 81.5095 116.473 81.6076C117.331 81.8279 118.207 81.9669 119.091 82.0229C119.151 97.3267 118.356 126.009 114.688 140.868L114.673 140.905ZM143.173 25.6621C142.138 28.1008 139.933 40.3016 129.838 47.4288C127.866 48.818 124.273 49.3163 121.873 49.3842C121.765 48.1968 121.539 47.0232 121.198 45.881C121.048 45.4129 120.823 44.8618 120.688 44.5296C120.674 44.502 120.651 44.48 120.623 44.4674C120.595 44.4548 120.564 44.4523 120.534 44.4602C120.504 44.4681 120.478 44.4861 120.46 44.511C120.441 44.536 120.432 44.5665 120.433 44.5975C120.846 47.9044 120.913 46.7342 121.363 49.724C121.363 49.724 122.601 58.1573 122.646 58.5726C123.223 63.8576 123.591 79.3653 123.006 81.517C120.935 81.5659 118.865 81.404 116.826 81.0338C116.023 78.3385 108.171 39.1842 107.998 32.5704C109.986 32.9328 117.651 35.7112 124.071 35.915C129.801 36.0887 138.418 23.835 138.493 23.835C139.086 23.7293 142.356 25.1261 143.181 25.6244L143.173 25.6621ZM145.686 20.1582C145.626 21.1321 144.501 21.789 143.668 22.3024C143.376 22.4911 142.716 24.7335 142.633 25.0506C141.597 24.5631 140.532 24.137 139.446 23.7746C140.196 22.627 140.848 22.023 140.563 21.7512C140.046 21.2756 139.063 20.6338 139.573 20.0978C139.636 20.1116 139.697 20.1344 139.753 20.1657C140.466 20.5055 141.036 21.4266 141.343 20.8603C141.481 20.1949 141.669 19.5412 141.906 18.9049C142.303 17.9762 142.551 18.1499 142.453 19.0559C142.368 19.6751 142.215 20.2829 141.996 20.8679C141.97 20.95 141.978 21.039 142.017 21.1155C142.056 21.192 142.124 21.2495 142.206 21.2756C142.288 21.3016 142.376 21.2939 142.452 21.2543C142.528 21.2147 142.585 21.1463 142.611 21.0642C142.798 20.3961 143.078 19.7581 143.443 19.1691C143.811 18.6255 144.253 18.4896 144.238 18.8596C144.122 19.5228 143.866 20.1534 143.488 20.7093C143.392 20.8449 143.332 21.0038 143.316 21.1699C143.304 21.2404 143.316 21.313 143.351 21.3753C143.386 21.4375 143.442 21.4857 143.508 21.5115C143.574 21.5373 143.647 21.5392 143.715 21.5168C143.783 21.4945 143.84 21.4492 143.878 21.3888C144.104 21.0718 144.355 20.7738 144.628 20.4979C145.071 20.06 145.716 19.758 145.693 20.1204L145.686 20.1582Z" fill="white"/>
<path d="M61.2213 20.7474C61.5288 21.4495 63.2088 21.0116 62.8788 20.6568C62.8549 20.6328 62.8225 20.6193 62.7888 20.6193C62.7551 20.6193 62.7227 20.6328 62.6988 20.6568C62.5988 20.6891 62.4913 20.6891 62.3913 20.6568C62.1867 20.6272 61.9872 20.5688 61.7988 20.4831V17.6443C61.7917 17.6147 61.7749 17.5883 61.7511 17.5694C61.7273 17.5505 61.6978 17.5402 61.6675 17.5402C61.6372 17.5402 61.6078 17.5505 61.584 17.5694C61.5602 17.5883 61.5434 17.6147 61.5363 17.6443C61.2671 18.469 61.1526 19.3369 61.1988 20.2038C61.18 20.3851 61.1875 20.5682 61.2213 20.7474ZM59.0463 18.875C59.0463 18.6711 59.0463 18.4522 59.0013 18.2634C58.9866 18.1792 58.9401 18.104 58.8717 18.0533C58.8032 18.0027 58.718 17.9806 58.6338 17.9916C58.5912 17.998 58.5503 18.0129 58.5135 18.0355C58.4767 18.0581 58.4448 18.0878 58.4197 18.123C58.3945 18.1582 58.3766 18.1981 58.367 18.2404C58.3574 18.2826 58.3563 18.3264 58.3638 18.3691C58.3638 18.505 58.3638 18.6636 58.4013 18.9203C58.4042 18.9629 58.4155 19.0045 58.4345 19.0428C58.4534 19.081 58.4796 19.1151 58.5117 19.1432C58.5437 19.1712 58.5809 19.1927 58.6212 19.2062C58.6614 19.2198 58.7039 19.2252 58.7463 19.2223C58.7886 19.2193 58.83 19.2079 58.868 19.1889C58.906 19.1698 58.9399 19.1434 58.9677 19.1112C58.9956 19.0789 59.0169 19.0415 59.0304 19.0009C59.0438 18.9604 59.0492 18.9176 59.0463 18.875V18.875ZM64.1088 18.8221C64.1088 18.9082 64.1428 18.9908 64.2032 19.0517C64.2637 19.1126 64.3458 19.1468 64.4313 19.1468C64.5168 19.1468 64.5989 19.1126 64.6593 19.0517C64.7198 18.9908 64.7538 18.9082 64.7538 18.8221V18.4824C64.7967 18.4211 64.8178 18.347 64.8136 18.2721C64.8094 18.1972 64.7801 18.126 64.7305 18.07C64.681 18.014 64.6141 17.9765 64.5407 17.9636C64.4673 17.9508 64.3917 17.9633 64.3263 17.9992C64.0338 18.1879 64.1088 18.5654 64.1088 18.8221ZM62.5938 23.488C62.3241 23.6392 62.0402 23.7631 61.7463 23.858C61.5813 23.858 61.5438 24.092 61.7463 24.1147C61.9368 24.211 62.1482 24.2577 62.3613 24.2506C62.5789 24.2247 62.7878 24.1494 62.9723 24.0303C63.1568 23.9113 63.312 23.7517 63.4263 23.5635C63.519 23.3632 63.5578 23.1419 63.5388 22.9218C63.5458 22.8877 63.539 22.8523 63.52 22.8233C63.501 22.7942 63.4714 22.774 63.4375 22.767C63.4037 22.76 63.3685 22.7668 63.3397 22.7859C63.3109 22.805 63.2908 22.8349 63.2838 22.8689C63.079 23.1021 62.8474 23.31 62.5938 23.488V23.488ZM104.459 24.0014C105.029 24.1826 105.959 24.3034 106.356 23.8504C106.754 23.3974 106.536 22.2196 106.491 21.7213C106.398 20.7428 106.186 19.7794 105.861 18.8523C105.854 18.8183 105.834 18.7884 105.805 18.7693C105.777 18.7502 105.741 18.7434 105.708 18.7504C105.674 18.7574 105.644 18.7776 105.625 18.8067C105.606 18.8357 105.599 18.8711 105.606 18.9052C105.606 19.1392 105.711 20.2944 105.734 20.5888C105.877 21.5505 105.928 22.524 105.884 23.4956C105.716 23.6101 105.523 23.6826 105.321 23.707C104.571 23.8353 104.399 23.6541 104.361 23.8504C104.357 23.8668 104.356 23.884 104.359 23.9008C104.361 23.9176 104.367 23.9336 104.376 23.9479C104.386 23.9621 104.398 23.9743 104.412 23.9835C104.426 23.9927 104.442 23.9988 104.459 24.0014V24.0014ZM103.191 19.026C103.191 18.7844 102.501 18.6636 102.051 18.7617C101.601 18.8599 100.986 19.3355 101.159 19.5167C101.331 19.6979 103.161 19.2449 103.191 19.026ZM102.696 20.8304V21.4797C102.696 21.5658 102.73 21.6484 102.791 21.7093C102.851 21.7702 102.933 21.8044 103.019 21.8044C103.104 21.8044 103.186 21.7702 103.247 21.7093C103.307 21.6484 103.341 21.5658 103.341 21.4797V20.8531C103.343 20.7662 103.312 20.682 103.253 20.6185C103.194 20.555 103.112 20.5172 103.026 20.5133C102.941 20.5132 102.86 20.5461 102.798 20.6052C102.737 20.6643 102.7 20.745 102.696 20.8304V20.8304ZM109.094 19.3355C109.154 19.2449 108.914 18.7617 108.344 18.5805C107.774 18.3993 107.339 18.6862 107.339 18.8221C107.339 18.958 108.981 19.5016 109.094 19.3355ZM102.374 25.6171C102.201 25.67 102.201 26.7572 103.229 27.0667C103.754 27.2177 104.466 27.1347 104.481 26.9459C104.496 26.7572 103.461 26.5307 103.124 26.2966C102.786 26.0626 102.516 25.5718 102.374 25.6171V25.6171ZM108.066 20.385C108.024 20.384 107.982 20.3914 107.942 20.4068C107.903 20.4222 107.867 20.4452 107.836 20.4747C107.805 20.5041 107.781 20.5394 107.764 20.5784C107.747 20.6174 107.737 20.6594 107.736 20.7021V21.3438C107.748 21.4224 107.788 21.494 107.847 21.5458C107.907 21.5976 107.984 21.6261 108.063 21.6261C108.141 21.6261 108.218 21.5976 108.278 21.5458C108.337 21.494 108.377 21.4224 108.389 21.3438V20.7172C108.39 20.6739 108.382 20.6309 108.366 20.5906C108.351 20.5503 108.327 20.5137 108.297 20.4827C108.267 20.4518 108.231 20.4272 108.191 20.4104C108.152 20.3936 108.109 20.385 108.066 20.385V20.385Z" fill="white"/>
</svg>
