<svg width="150" height="151" viewBox="0 0 150 151" fill="none" xmlns="http://www.w3.org/2000/svg">
<path d="M53.0781 113.325C54.3283 112.88 55.6092 112.526 56.9106 112.268L57.0681 112.85C57.0857 112.918 57.1272 112.978 57.1851 113.018C57.2429 113.059 57.3132 113.076 57.3831 113.069L62.5356 112.465C63.9531 109.211 66.5556 104.281 66.5931 104.205C66.5556 102.974 66.5931 101.94 66.5931 100.762C63.6456 101.865 58.1931 103.956 55.3431 105.292C55.2786 105.334 55.2288 105.395 55.2006 105.467C55.1723 105.539 55.1671 105.618 55.1856 105.692C55.1856 105.692 55.2381 105.881 55.3056 106.153C53.9106 106.153 49.7331 105.949 48.7281 106.908C48.5718 107.127 48.495 107.394 48.5106 107.663C48.4506 108.705 48.9681 116.798 49.7931 119.177C50.2206 120.422 51.1206 120.287 51.7356 119.094C52.4474 117.297 52.9044 115.409 53.0931 113.484C53.0931 113.386 53.0706 113.393 53.0781 113.325V113.325ZM52.2156 106.568C53.1306 106.493 53.4156 106.508 55.3806 106.447C55.7331 107.791 56.4606 110.555 56.8356 111.966C55.5123 112.173 54.2062 112.478 52.9281 112.88C52.5298 110.798 52.2916 108.687 52.2156 106.568Z" fill="white"/>
<path d="M122.108 40.4918C122.296 40.2275 122.056 39.8878 121.853 39.6235C122.427 39.0296 123.063 38.5005 123.751 38.0456C124.911 37.4634 125.972 36.6989 126.893 35.7806C127.276 35.3804 127.996 34.5575 127.726 34.0743C127.456 33.5911 126.976 33.5609 126.323 33.8402C126.606 33.5415 126.837 33.1969 127.006 32.821C127.216 32.2321 126.721 31.7564 125.648 32.1943C126.038 31.5677 126.128 30.9108 125.468 30.5937C124.936 30.337 124.156 30.9486 123.706 31.3487C122.822 32.126 121.993 32.9635 121.223 33.8553C120.751 32.8587 120.001 31.7111 119.063 32.0735C118.126 32.4359 118.853 34.0592 119.333 34.9425L117.631 36.1279C117.374 35.9881 117.083 35.9227 116.791 35.9391C114.856 36.2713 105.968 43.0814 105.068 43.0814C104.378 43.0814 94.5234 38.3249 86.0034 36.9508C85.987 36.8994 85.9564 36.8537 85.9153 36.819C85.8741 36.7842 85.8241 36.7619 85.7709 36.7545C84.2848 36.4993 82.7782 36.3855 81.2709 36.4148C81.2252 36.4179 81.1808 36.431 81.1406 36.4531C81.1004 36.4753 81.0656 36.506 81.0384 36.5431H80.4084C80.2584 35.9316 79.7034 34.5197 79.5084 33.9761C80.0184 33.5307 80.7234 33.3042 81.0909 32.5869C81.7659 31.2581 81.7359 28.9478 81.5484 27.468C82.3959 26.8187 82.4184 25.7768 82.2234 24.7123C82.1484 24.2819 81.9159 23.308 81.5559 23.0664C81.3534 22.9305 80.9259 23.0664 80.5584 23.2023C80.1909 22.3416 80.1909 22.7342 80.3409 22.3869C80.4106 22.2268 80.4512 22.0555 80.4609 21.881C80.8584 22.0018 81.6834 21.2015 81.3984 20.1445C81.2491 19.7662 81.0658 19.4023 80.8509 19.0573C80.9559 18.8006 81.1809 18.4911 80.4759 17.5473C80.1723 17.2176 79.7781 16.9864 79.3434 16.8829H78.9984C78.7496 16.5192 78.3842 16.2527 77.9634 16.1279C77.3282 15.9649 76.6547 16.0598 76.0884 16.3922C75.9384 16.5054 75.8184 16.6564 75.6684 16.7621C75.3293 16.5548 74.9402 16.4452 74.5434 16.4452C74.1467 16.4452 73.7575 16.5548 73.4184 16.7621C73.2199 16.8406 73.0392 16.9586 72.8871 17.1091C72.735 17.2596 72.6147 17.4395 72.5334 17.6379C72.1659 17.5103 71.7761 17.4612 71.3887 17.4937C71.0013 17.5262 70.6248 17.6396 70.2834 17.8267C68.9878 18.5339 68.0186 19.7236 67.5834 21.1411C67.5713 21.3549 67.5713 21.5691 67.5834 21.7829H67.5009C66.3759 21.6168 64.9434 24.3046 66.0909 26.3959C66.2259 26.6451 66.3984 26.8791 66.5634 27.1509C67.0434 27.9059 66.8559 28.1324 67.9284 29.0535C68.2434 29.3253 68.2959 29.3027 68.4909 29.4688C68.6859 29.6349 68.6109 29.5518 68.7234 29.9746C68.7848 30.2237 68.8946 30.4581 69.0465 30.6641C69.1984 30.8702 69.3894 31.0438 69.6084 31.1751C69.6881 31.9136 70.0009 32.6069 70.5009 33.1532C70.6593 33.3316 70.8439 33.4843 71.0484 33.6062C71.1036 33.6375 71.1652 33.6556 71.2284 33.659C71.4534 35.0633 71.7309 36.8904 71.8509 37.6681L71.1834 38.0305C70.3101 38.3842 69.4607 38.7953 68.6409 39.2611C68.5766 39.3059 68.5312 39.3732 68.5134 39.4499C67.7184 39.8727 66.9684 40.2728 66.5409 40.5295C60.5859 44.0856 43.6734 67.5283 43.5009 68.6004C43.4819 68.6619 43.4819 68.7277 43.5009 68.7892C43.7433 69.1785 44.0387 69.5318 44.3784 69.8386C44.2737 70.0309 44.1479 70.2107 44.0034 70.3747C42.5034 71.3637 40.2534 72.836 39.0459 74.1497C38.9612 74.2257 38.8977 74.3226 38.8616 74.4309C38.8255 74.5392 38.818 74.6551 38.84 74.7671C38.8619 74.8792 38.9125 74.9835 38.9868 75.0699C39.0611 75.1562 39.1564 75.2216 39.2634 75.2595C39.4884 75.335 39.5259 75.3124 40.9884 74.5045C40.5865 74.8594 40.2577 75.2904 40.0209 75.7729C39.9234 76.1882 40.2984 76.4298 40.7709 76.3543C41.0368 76.2841 41.2899 76.172 41.5209 76.0221C41.3856 76.2324 41.3137 76.4775 41.3137 76.728C41.3137 76.9785 41.3856 77.2237 41.5209 77.4339C42.2709 78.3852 44.2359 75.3879 45.2709 74.648C45.6909 75.184 46.2609 76.4373 47.1684 76.1051C47.9559 75.8107 47.0934 74.0666 47.1684 73.5608C47.4736 73.2658 47.7994 72.9933 48.1434 72.7454C48.722 73.1773 49.3835 73.4833 50.0859 73.6438C51.3234 73.6438 64.2384 60.5219 65.2209 59.4725C64.8684 62.8096 63.0909 77.1319 63.4659 79.9179C63.6384 81.1787 66.6459 81.3599 67.9134 81.4279C67.5309 90.4879 67.2759 104.214 67.2084 104.357C65.2209 108.668 64.6809 109.846 64.0134 111.152C62.7984 113.493 57.6834 122.13 57.1059 124.093C57.0234 124.403 57.0159 124.523 57.3384 125.097C56.3719 126.12 55.4749 127.207 54.6534 128.351C54.2409 129.106 56.0109 136.143 57.2634 138.634C57.5484 139.193 58.0134 140.054 58.6359 140.031C60.5109 139.963 60.5034 133.183 60.4509 131.288C60.4506 131.23 60.4293 131.173 60.3909 131.13C60.7308 130.619 61.1015 130.13 61.5009 129.665C61.7393 129.83 61.9901 129.976 62.2509 130.103C62.5059 130.216 62.7909 130.02 63.0009 129.846C65.4984 127.868 78.9684 110.971 81.8559 102.998C83.1684 99.3591 84.9159 94.3308 85.4109 90.7672C85.7135 88.5141 85.7412 86.2322 85.4934 83.9722C85.4934 83.9402 85.5061 83.9095 85.5286 83.8868C85.5511 83.8642 85.5816 83.8514 85.6134 83.8514C85.6452 83.8514 85.6758 83.8642 85.6983 83.8868C85.7208 83.9095 85.7334 83.9402 85.7334 83.9722C86.109 86.245 86.1822 88.5581 85.9509 90.8503C85.3959 95.7955 81.5184 106.101 79.4484 109.891C81.2334 109.559 84.8634 108.834 86.6184 108.306C92.4684 106.517 97.8684 101.179 98.3409 95.184C98.4938 92.3599 98.4938 89.5295 98.3409 86.7053C98.2903 82.8066 97.7869 78.9273 96.8409 75.1463C98.4309 74.278 99.8859 73.2588 100.358 72.3226C101.371 70.3218 98.6934 58.8081 98.1084 55.5767C101.311 55.9315 106.763 56.5733 109.306 54.5725C112.216 52.2169 118.501 45.588 122.108 40.4918V40.4918ZM60.0459 130.873C58.6959 130.05 56.8059 128.094 56.5209 126.562C56.8284 126.169 57.1509 125.807 57.4509 125.399C58.4673 126.96 59.7346 128.341 61.2009 129.484C60.789 129.923 60.4033 130.387 60.0459 130.873V130.873ZM119.671 35.1539C119.71 35.129 119.738 35.0901 119.749 35.0452C119.76 35.0002 119.753 34.9527 119.731 34.9123C119.468 34.4216 118.681 32.6926 119.228 32.4963C119.543 32.3755 119.821 32.5718 120.053 32.8361C120.408 33.2895 120.685 33.8 120.871 34.3461C120.885 34.3905 120.91 34.4303 120.945 34.4611C120.98 34.492 121.022 34.5128 121.067 34.5213C121.113 34.5299 121.16 34.5258 121.203 34.5096C121.246 34.4933 121.285 34.4655 121.313 34.4291C122.063 33.5911 123.818 31.6809 124.808 31.1675C125.558 30.7749 125.738 31.4997 123.901 33.1909C123.479 33.5149 123.073 33.8601 122.686 34.2253C122.665 34.2549 122.653 34.2906 122.653 34.3272C122.653 34.3638 122.665 34.3995 122.686 34.4291C122.686 34.6254 122.843 34.8444 123.113 34.6405C123.765 34.0644 124.454 33.5323 125.176 33.0475C125.544 32.7841 125.972 32.618 126.421 32.5643C126.196 33.2589 124.103 35.1464 123.923 35.3578C123.866 35.4093 123.832 35.4813 123.827 35.5583C123.822 35.6353 123.847 35.7112 123.897 35.7696C123.948 35.828 124.018 35.8642 124.095 35.8705C124.171 35.8768 124.247 35.8526 124.306 35.8032C125.138 35.2596 126.593 33.9912 127.096 34.18C127.598 34.3687 126.106 35.773 125.731 36.1052C123.578 37.9852 124.133 36.7772 121.643 39.3291C120.56 38.1339 119.315 37.097 117.946 36.2487L119.671 35.1539ZM87.0834 71.2656C86.9559 70.2237 86.7984 69.0987 86.6034 67.9285L86.9259 67.4981C88.4259 65.5578 88.8759 62.4698 88.7334 60.0463C89.5359 63.5872 90.1734 67.0678 90.6609 70.5257L87.0834 71.2656ZM75.9309 45.4144C73.9584 43.9044 70.7859 41.2996 68.9409 39.5178L71.9409 38.0078C74.6957 40.5981 77.0538 43.5851 78.9384 46.8715C81.82 52.2006 83.9577 57.9042 85.2909 63.8213L74.5959 48.5929L75.9909 45.6786C76.0094 45.6338 76.0135 45.5842 76.0028 45.5369C75.992 45.4895 75.9669 45.4467 75.9309 45.4144ZM81.0009 36.8527C81.0459 36.9357 81.5634 38.0456 82.3509 39.9859C82.3509 40.069 82.2084 41.9565 82.1409 42.6209C81.1837 42.2389 80.2809 41.7312 79.4559 41.1109C79.6209 40.454 80.3634 37.4718 80.4159 36.7998L81.0009 36.8527ZM78.3384 44.9614C78.3909 44.8255 78.4434 44.6443 78.5034 44.4329L79.0059 44.6971C79.2909 44.8859 79.1784 44.3121 79.4334 45.9731C79.4334 46.2524 79.5084 46.562 79.5234 46.9017C79.1784 46.2751 78.7509 45.6031 78.3459 44.9614H78.3384ZM77.9184 44.3272C76.5015 42.3041 74.8886 40.4275 73.1034 38.7251L78.7509 41.1939C78.5334 41.7149 78.2184 43.3079 77.9259 44.3272H77.9184ZM83.6859 48.7515C82.9359 46.6903 82.3584 44.3876 82.0734 43.7836C82.0904 43.5952 82.0904 43.4057 82.0734 43.2173C82.1819 43.258 82.2955 43.2834 82.4109 43.2928C82.4833 43.2937 82.5535 43.2681 82.6086 43.221C82.6637 43.1738 82.7001 43.1082 82.7109 43.0361C82.7709 42.787 82.8684 41.5261 82.8834 41.2468C85.0652 46.7919 86.8865 52.4739 88.3359 58.2569C84.0984 49.1818 84.7509 51.8092 83.6934 48.7515H83.6859ZM89.8884 63.1644C88.1784 54.9123 85.1709 44.6216 81.7509 36.9961C83.0069 36.9968 84.2608 37.0978 85.5009 37.2981C86.1384 43.0361 85.6059 42.8398 86.0334 43.0663C86.4609 43.2928 89.0334 44.3347 89.4159 44.4933C89.3784 45.0746 89.9184 61.6997 89.8959 63.1644H89.8884ZM81.2559 23.5496C81.6469 24.4085 81.7848 25.3623 81.6534 26.2978C81.5924 26.5359 81.4669 26.7523 81.2909 26.9228C81.1149 27.0934 80.8954 27.2114 80.6568 27.2639C80.4181 27.3163 80.1697 27.301 79.9391 27.2198C79.7086 27.1385 79.505 26.9945 79.3509 26.8036C78.993 26.0448 78.7237 25.2467 78.5484 24.4254C78.7509 24.1611 80.9109 23.6326 81.2559 23.5496V23.5496ZM70.9359 31.0996C70.6619 30.974 70.3815 30.8631 70.0959 30.7674C69.9042 30.6881 69.7331 30.5656 69.5957 30.4094C69.4583 30.2532 69.3582 30.0674 69.3032 29.8662C69.2482 29.6651 69.2396 29.4539 69.2782 29.2489C69.3168 29.0439 69.4016 28.8505 69.5259 28.6836C69.9984 28.2834 70.4259 28.3061 70.8159 28.9025C71.0634 29.3631 71.0559 29.4008 71.1684 29.4461C71.2007 29.4605 71.2356 29.4677 71.2709 29.4673C71.3062 29.4669 71.3409 29.4589 71.3729 29.4439C71.4048 29.4289 71.4332 29.4072 71.4562 29.3802C71.4791 29.3533 71.4961 29.3217 71.5059 29.2876C71.6171 28.815 71.6349 28.325 71.5584 27.8455C71.4684 27.3246 71.4534 25.0143 71.4684 24.9388C71.6875 25.055 71.9336 25.1098 72.1809 25.0973C73.5384 25.0445 73.8084 24.3423 74.3484 23.7685C74.9709 23.8289 75.0984 24.1309 75.8034 23.7685C76.1335 23.5795 76.4364 23.3458 76.7034 23.0739C76.919 23.1628 77.1271 23.2688 77.3259 23.391C77.7754 23.6086 78.2824 23.6755 78.7724 23.5817C79.2623 23.4879 79.7096 23.2385 80.0484 22.8701C80.1309 23.0286 80.2059 23.1872 80.2734 23.3533C79.5842 23.5686 78.9354 23.8977 78.3534 24.3272C78.2259 24.4858 78.4134 25.3465 78.4584 25.5503C77.8301 25.6299 77.2222 25.8271 76.6659 26.1317C76.5534 25.7391 76.3059 25.0067 75.9159 24.8029C75.7986 24.7667 75.6732 24.7667 75.5559 24.8029C74.8809 24.9086 72.4584 25.6409 72.1659 26.0411C71.9109 26.3204 72.6384 28.4797 72.8634 28.8346C73.7259 30.1785 76.2534 29.7859 76.7259 28.2155C76.8429 27.6885 76.8429 27.1419 76.7259 26.6149C76.9434 26.6149 77.5959 26.3808 77.6709 26.3582C78.1884 27.5284 78.3384 27.5964 78.9384 28.8572C78.8559 28.9252 78.7209 29.0384 78.6084 29.1139C78.0759 29.4688 77.9634 29.4084 77.9934 29.5594C78.0022 29.5894 78.0214 29.6151 78.0477 29.6318C78.0739 29.6485 78.1053 29.6549 78.1359 29.65C78.4507 29.6047 78.7583 29.5184 79.0509 29.3933C79.2261 29.3275 79.3705 29.1983 79.4559 29.0309C79.6659 28.5552 78.5034 26.7659 78.0459 26.2298C78.1359 26.2298 78.3459 26.0788 78.5034 25.9958C78.7134 26.8414 78.8559 27.5058 79.6659 27.838C79.9 27.927 80.1495 27.9675 80.3995 27.9571C80.6495 27.9467 80.8949 27.8857 81.1209 27.7776C81.2409 29.1064 81.2184 31.2657 80.5884 32.4435C80.2659 33.055 79.4709 33.2891 78.9609 33.7949C78.8109 33.9384 78.9084 34.1422 78.9609 34.3612C79.7934 36.6941 79.8084 36.6866 79.7634 36.9886C79.5427 38.2421 79.2344 39.4783 78.8409 40.6881C78.6534 40.605 76.5459 39.4801 72.4209 37.8644C72.2934 37.0112 71.6109 32.4586 71.3934 31.6205C71.4084 31.3261 71.3709 31.2581 70.9359 31.0618V31.0996ZM76.1859 28.0192C75.9459 28.8421 74.8134 29.197 74.0034 28.9705C73.1934 28.744 73.1409 28.3287 72.7584 27.3472C72.5791 26.9723 72.4553 26.5729 72.3909 26.1619C72.6384 25.8901 75.3459 25.3314 75.6834 25.2785C76.1568 26.0937 76.3344 27.0491 76.1859 27.9814V28.0192ZM46.8384 73.3494C46.5534 73.6287 46.9359 74.5423 46.9959 75.335C46.9959 75.403 46.9959 75.6974 46.9509 75.7201C46.5384 75.856 46.1559 75.2293 45.9234 74.8518C45.6909 74.4743 45.4584 73.9609 45.0909 74.0968C44.3409 74.4517 42.6009 76.7771 41.9184 77.0187C41.5734 76.3543 43.5459 74.4592 43.6134 74.3535C43.6424 74.305 43.6575 74.2494 43.6573 74.1928C43.657 74.1362 43.6413 74.0808 43.6119 74.0325C43.5825 73.9842 43.5406 73.945 43.4906 73.9191C43.4406 73.8931 43.3845 73.8815 43.3284 73.8854C43.1934 73.8854 43.1034 74.0062 42.8934 74.195C42.2547 74.8226 41.5236 75.3472 40.7259 75.7503C41.4491 74.9151 42.2231 74.1259 43.0434 73.3871C43.0839 73.3452 43.1124 73.293 43.1259 73.2361C43.1259 73.2361 42.9684 72.836 42.6609 72.9945C42.2259 73.2361 40.1109 74.4668 39.4434 74.7839C39.3534 74.7235 39.4059 74.6329 39.4434 74.5423C40.5009 73.2361 42.8259 71.6506 44.2509 70.6465C44.4182 70.4731 44.5574 70.2744 44.6634 70.0576C45.6503 70.982 46.7031 71.8324 47.8134 72.6019C47.4714 72.8277 47.1456 73.0775 46.8384 73.3494V73.3494ZM64.2909 80.2123C64.1259 80.1066 64.0059 80.0085 63.9834 79.8726C63.5709 76.7922 65.8659 59.3366 65.8284 58.6495C65.8284 58.6092 65.8204 58.5693 65.8049 58.5322C65.7893 58.4951 65.7666 58.4614 65.7379 58.4333C65.7093 58.4051 65.6753 58.3831 65.638 58.3683C65.6008 58.3536 65.5609 58.3465 65.5209 58.3475C65.1384 58.3475 65.8134 58.3475 56.2584 67.5585C55.6284 68.155 50.8134 72.7907 50.0109 73.1002C48.9084 73.0172 44.7609 69.6876 44.0859 68.6382C45.3909 65.9806 61.2159 44.1158 66.6909 40.7711C67.1109 40.5144 67.8309 40.1143 68.6184 39.6915C68.8907 39.95 69.1843 40.1849 69.4959 40.3936C71.2359 42.0546 73.6584 44.1233 75.4959 45.6786L74.0634 48.5401C74.0417 48.578 74.0303 48.6209 74.0303 48.6647C74.0303 48.7084 74.0417 48.7514 74.0634 48.7892C85.6959 65.588 85.5234 65.3992 85.5984 65.3992C86.3441 69.2811 86.8079 73.2125 86.9859 77.1621C86.9859 78.2267 86.9859 78.1361 87.0309 78.0606C87.0759 77.9851 87.0309 78.1134 87.0309 78.1134C85.2159 80.1066 67.2534 81.9639 64.2909 80.2123V80.2123ZM105.751 55.1992C102.353 55.6748 98.5134 54.9651 97.7709 54.9349C97.3583 52.9222 96.536 51.0174 95.3559 49.3404C95.3379 49.316 95.3114 49.2993 95.2817 49.2937C95.2519 49.2881 95.2212 49.294 95.1956 49.3102C95.17 49.3264 95.1515 49.3517 95.1437 49.3811C95.1358 49.4105 95.1393 49.4418 95.1534 49.4687C95.5884 50.3596 97.0434 54.2026 97.4034 55.1388C97.2909 55.5012 100.793 70.0802 99.8034 72.0432C98.9184 73.8175 93.7659 76.0523 91.9059 76.694C91.5382 72.4909 90.9372 68.3117 90.1059 64.1761C90.3609 62.0017 90.0309 49.0761 89.9334 44.297C89.9306 44.2415 89.9121 44.1879 89.8803 44.1425C89.8484 44.097 89.8044 44.0616 89.7534 44.0403L86.3859 42.6133C86.3706 40.8191 86.2579 39.0271 86.0484 37.2453C94.4559 38.71 104.251 43.5495 105.068 43.5571C106.253 43.5571 115.058 36.7621 116.881 36.4903C117.691 36.3619 121.171 39.4197 121.576 40.2653C118.021 45.2634 111.773 51.8319 108.878 54.1044C107.946 54.7322 106.869 55.1091 105.751 55.1992V55.1992Z" fill="white"/>
<path d="M75.4131 26.5084C75.4037 26.4589 75.3848 26.4116 75.3573 26.3694C75.3298 26.3272 75.2943 26.2909 75.2529 26.2625C75.2114 26.2341 75.1648 26.2142 75.1158 26.2039C75.0667 26.1937 75.0161 26.1932 74.9668 26.2027C74.9176 26.2121 74.8707 26.2312 74.8288 26.2588C74.7868 26.2865 74.7507 26.3222 74.7225 26.3639C74.6943 26.4057 74.6746 26.4526 74.6644 26.502C74.6542 26.5514 74.6537 26.6023 74.6631 26.6519C74.8131 27.4069 74.8431 27.5805 75.1731 27.5805C75.2355 27.5807 75.2969 27.5653 75.3519 27.5356C75.4068 27.5059 75.4535 27.4628 75.4878 27.4103C75.522 27.3579 75.5428 27.2976 75.548 27.2351C75.5533 27.1725 75.543 27.1096 75.5181 27.052C75.4956 26.9312 75.4281 26.5764 75.4131 26.5084V26.5084ZM77.7081 31.5065C78.1956 31.65 78.6606 31.4159 78.6456 31.2951C78.6306 31.1743 78.6456 31.2347 77.9856 30.9856C77.5431 30.8195 77.0556 30.2306 76.8831 30.3212C76.7106 30.4118 76.9731 30.895 77.0331 30.9856C77.1935 31.2306 77.4313 31.4142 77.7081 31.5065V31.5065ZM91.4256 24.334C90.4431 28.479 89.7231 31.9973 89.6031 32.6994C89.5234 33.0049 89.5081 33.3238 89.5581 33.6356C89.9556 34.4888 95.0931 36.1724 95.7456 35.8402C96.3981 35.508 98.0931 31.6651 100.066 27.7013C101.274 27.7402 102.483 27.6516 103.673 27.4371C104.926 27.2057 106.146 26.8176 107.303 26.2819C109.838 25.1041 112.613 20.0607 112.988 17.5239C113.269 14.7697 112.69 11.9958 111.331 9.58888C105.038 -1.39637 86.5806 4.51528 88.0806 16.7161C88.5089 19.5079 89.6629 22.136 91.4256 24.334V24.334ZM96.0006 33.3261C96.0006 33.4469 95.8656 33.4318 95.2506 33.3261C93.9927 33.1669 92.7747 32.7753 91.6581 32.1709C91.1331 31.884 90.9906 31.8236 91.0431 31.6953C91.0956 31.5669 91.2081 31.6122 92.0181 31.8387C92.0931 31.8387 94.4181 32.5937 95.0856 32.8278C95.9481 33.2204 96.0006 33.2204 96.0006 33.3261V33.3261ZM95.8656 21.0422C96.6665 21.084 97.4646 20.9176 98.1831 20.559C98.8509 20.8847 99.5733 21.0819 100.313 21.1404C99.0531 23.5035 96.4956 28.3204 95.6706 30.8874L92.4906 30.0041C93.2406 28.1468 94.8981 23.798 95.8506 21.0422H95.8656ZM95.6031 20.4156C95.0432 20.3304 94.5266 20.0628 94.1323 19.6536C93.7381 19.2445 93.4881 18.7165 93.4206 18.1506C93.2106 16.6406 94.1706 14.9494 95.6181 15.3495C96.5256 15.5987 96.6381 16.3235 96.4806 17.237C96.3456 17.9014 95.8581 19.57 95.5881 20.3854L95.6031 20.4156ZM97.6431 18.6036C97.7232 18.1095 97.9073 17.6385 98.1831 17.2219C98.3143 16.9949 98.5061 16.8094 98.7368 16.6866C98.9675 16.5638 99.2278 16.5087 99.4881 16.5273C100.043 16.6934 100.283 17.7504 99.8256 18.4148C99.3859 19.0022 98.8385 19.4994 98.2131 19.8795C97.9979 19.7524 97.8265 19.562 97.7219 19.3339C97.6173 19.1058 97.5846 18.8509 97.6281 18.6036H97.6431ZM90.7506 9.00753C94.1106 4.93808 100.433 3.32238 105.001 4.99848C107.482 5.85589 109.569 7.59195 110.873 9.88333C112.166 12.1737 112.719 14.8123 112.456 17.4333C112.111 19.7814 109.456 24.6587 107.123 25.7383C104.99 26.7176 102.664 27.1928 100.321 27.1275C100.066 27.1275 99.7956 27.1275 99.6981 27.3087C99.2556 28.2147 98.4456 29.9663 97.6506 31.6122C97.1016 31.3454 96.5323 31.1232 95.9481 30.9478C96.8181 28.4412 99.5631 23.5186 100.868 21.1328C101.999 21.2303 103.135 21.0327 104.168 20.559C104.447 20.4112 104.678 20.1863 104.835 19.9107C104.991 19.6352 105.067 19.3204 105.052 19.0034C105.037 18.6863 104.932 18.3801 104.75 18.1208C104.569 17.8614 104.317 17.6596 104.026 17.539C102.863 16.9652 101.821 18.3393 101.213 19.4945C101.048 19.7965 100.861 20.1513 100.651 20.5515C100.044 20.5114 99.4458 20.3869 98.8731 20.1815C99.4435 19.778 99.9493 19.2892 100.373 18.7319C100.611 18.3709 100.731 17.9447 100.717 17.5119C100.704 17.0792 100.557 16.6613 100.298 16.3159C100.094 16.0777 99.8113 15.9225 99.502 15.8794C99.1927 15.8364 98.8784 15.9083 98.6181 16.0819C98.0928 16.4068 97.6719 16.8774 97.4058 17.4372C97.1398 17.997 97.0398 18.6222 97.1181 19.2378C97.1996 19.5852 97.3856 19.899 97.6506 20.1362C97.1586 20.3413 96.6305 20.4441 96.0981 20.4382C96.3981 19.5473 96.8856 17.9392 97.0131 17.2823C97.0931 16.9078 97.1108 16.5226 97.0656 16.1423C97.0076 15.8158 96.8571 15.5131 96.6322 15.2707C96.4073 15.0282 96.1177 14.8564 95.7981 14.7757C93.9756 14.2548 92.6331 16.2857 92.8956 18.1808C92.9697 18.8599 93.2593 19.4969 93.7213 19.9973C94.1833 20.4978 94.7932 20.8351 95.4606 20.9592C94.5006 23.6772 93.0006 28.0637 92.2506 29.9361L90.6006 29.5058C91.6581 24.1604 91.7856 24.2887 91.6356 24.2208C89.9315 22.0336 88.8411 19.4264 88.4781 16.6708C88.3013 15.3044 88.4123 13.9159 88.8038 12.5956C89.1954 11.2753 89.8587 10.0527 90.7506 9.00753V9.00753ZM101.161 20.5968C101.686 19.6379 102.736 17.539 103.756 18.0524C103.96 18.1352 104.137 18.2724 104.269 18.4494C104.402 18.6264 104.483 18.8363 104.506 19.0566C104.491 20.3854 102.436 20.6194 101.131 20.5968H101.161ZM129.871 23.9263C130.774 23.3913 131.842 23.2086 132.871 23.4129C134.001 23.4333 135.08 23.8881 135.887 24.6841C136.695 25.4801 137.169 26.5569 137.213 27.6938C136.534 27.2969 135.739 27.1476 134.963 27.271C133.081 27.4371 130.621 28.4639 130.951 30.291C131.221 31.801 133.201 31.5971 134.701 31.1894C136.201 30.7817 137.393 30.0418 137.701 28.5847C139.523 29.921 139.951 32.2615 140.026 34.5492C140.026 34.5812 140.038 34.6119 140.061 34.6346C140.083 34.6573 140.114 34.67 140.146 34.67C140.177 34.67 140.208 34.6573 140.23 34.6346C140.253 34.6119 140.266 34.5812 140.266 34.5492C140.318 31.9897 139.861 29.4831 137.783 28.026C137.804 27.3705 137.693 26.7174 137.457 26.1064C137.22 25.4953 136.863 24.9389 136.406 24.4709C135.95 24.003 135.404 23.6331 134.801 23.3838C134.199 23.1344 133.552 23.0108 132.901 23.0203C131.859 22.8673 130.798 23.0863 129.901 23.6394C129.623 23.7753 129.751 23.9792 129.871 23.9263V23.9263ZM136.711 29.3397C135.863 30.4571 133.463 31.0384 132.353 30.8497C131.941 30.7817 131.603 30.6081 131.513 30.1777C131.243 28.6677 133.831 27.8448 135.376 27.7919C136.005 27.7434 136.632 27.9053 137.161 28.2525C137.104 28.6472 136.949 29.0212 136.711 29.3397V29.3397ZM126.436 15.1004C127.238 14.1038 126.698 12.3673 124.456 12.3597C123.586 12.3597 123.166 13.2506 123.226 14.1038C123.361 16.1347 125.633 16.0743 126.436 15.1004V15.1004ZM123.751 14.066C123.751 13.5677 123.983 12.9184 124.501 12.926C125.708 12.926 126.263 13.4922 126.263 14.1189C126.233 15.5458 123.653 16.2857 123.751 14.066V14.066ZM123.443 99.6604C116.851 97.0103 113.791 109.838 108.406 120.861C108.372 121.324 108.387 121.79 108.451 122.25C108.451 123.405 108.578 131.053 109.246 131.922C109.426 132.269 110.183 131.922 110.536 131.703C113.529 129.837 116.351 127.704 118.966 125.33C118.988 125.305 119.005 125.275 119.015 125.242C119.025 125.21 119.029 125.176 119.026 125.142C120.421 123.141 125.648 112.722 126.916 107.497C127.801 103.798 126.923 101.042 123.443 99.6604V99.6604ZM125.798 109.249C122.269 108.794 118.856 107.672 115.741 105.942C117.496 102.597 119.663 98.7846 123.241 100.219C127.223 101.812 127.141 105.111 125.798 109.226V109.249ZM113.318 128.879C113.088 128.685 112.836 128.517 112.568 128.381C111.555 127.862 110.384 127.749 109.291 128.063C109.216 127.165 108.788 121.321 108.788 121.268C114.406 123.337 112.673 122.439 118.238 125.225C117.653 125.783 115.456 127.331 113.318 128.864V128.879ZM117.188 107.029C117.92 107.431 118.67 107.797 119.438 108.124C117.719 110.842 116.2 113.684 114.893 116.625C113.633 119.275 113.678 119.26 112.396 122.152C111.646 121.91 110.896 121.684 110.146 121.457C110.956 119.834 116.716 107.965 117.188 107.014V107.029ZM112.688 122.227C115.126 117.826 117.608 112.352 119.738 108.222C120.488 108.539 121.238 108.796 121.988 109.022C121.591 109.777 120.428 111.786 120.121 112.367C119.813 112.948 116.731 119.064 116.513 119.532C116.168 120.287 115.223 122.393 114.931 123.065C114.166 122.726 113.431 122.469 112.658 122.212L112.688 122.227ZM115.201 123.164C115.658 122.325 117.541 118.807 117.773 118.354C118.126 117.652 122.056 109.566 122.273 109.098C122.963 109.294 123.691 109.46 124.156 109.551C122.783 113.326 118.831 120.597 117.406 124.183C116.108 123.571 115.816 123.42 115.171 123.148L115.201 123.164ZM115.658 106.161L117.001 106.916C114.295 111.554 111.939 116.389 109.951 121.382L108.826 121.034C113.183 111.688 113.386 110.464 115.628 106.146L115.658 106.161ZM118.748 124.84L117.616 124.296C118.838 121.88 122.663 115.681 124.411 109.604C124.831 109.679 125.243 109.747 125.641 109.8C123.713 114.977 121.399 120 118.718 124.825L118.748 124.84ZM95.2506 129.74C95.5495 129.49 95.7632 129.153 95.8614 128.775C95.9597 128.397 95.9375 127.998 95.7981 127.633C95.7345 127.107 95.4948 126.618 95.1186 126.248C94.7424 125.877 94.252 125.646 93.7282 125.594C93.2044 125.541 92.6783 125.669 92.2366 125.958C91.7949 126.246 91.4639 126.677 91.2981 127.18C90.3381 126.553 89.2956 125.889 88.2981 125.255C89.0481 124.251 91.2531 124.696 91.4781 125.519C91.4831 125.551 91.5005 125.58 91.5265 125.599C91.5525 125.618 91.585 125.626 91.6168 125.621C91.6487 125.616 91.6772 125.599 91.6962 125.572C91.7152 125.546 91.7231 125.513 91.7181 125.481C91.6056 124.168 88.8906 123.398 87.7956 124.945C86.8281 124.349 85.6281 123.624 84.6231 123.073C85.4856 122.318 87.4131 122.741 87.6231 123.526C87.633 123.553 87.652 123.575 87.6768 123.589C87.7016 123.603 87.7305 123.608 87.7584 123.603C87.7864 123.597 87.8115 123.582 87.8293 123.56C87.8471 123.537 87.8564 123.509 87.8556 123.481C87.7581 122.258 85.2456 121.435 84.1056 122.778C83.6279 122.509 83.1256 122.287 82.6056 122.114C82.5106 122.074 82.4062 122.063 82.305 122.082C82.2039 122.101 82.1103 122.149 82.0356 122.22C80.1381 124.598 73.7406 130.774 70.7856 131.491C70.7113 131.502 70.6413 131.533 70.5826 131.58C70.5238 131.628 70.4785 131.689 70.4511 131.76C70.4238 131.83 70.4153 131.907 70.4266 131.982C70.4379 132.056 70.4686 132.127 70.5156 132.186C71.1645 132.849 71.9076 133.411 72.7206 133.854C71.9706 134.609 71.3856 135.289 70.9506 135.78C70.7256 136.021 70.6056 140.642 70.8006 141.661C70.8296 141.761 70.8936 141.847 70.9806 141.903C71.9256 142.552 84.0981 147.852 85.3431 147.142C86.1756 146.667 96.1131 136.255 96.2706 135.938C96.5106 135.44 96.4281 132.118 96.4131 130.789C96.3531 130.389 95.6106 129.959 95.2506 129.74V129.74ZM71.2506 139.713V138.029C74.3631 139.539 81.4881 142.62 84.1881 143.481C84.8781 143.707 84.9381 143.677 85.2981 143.481C87.3606 142.152 94.6431 133.892 95.9781 132.631V134.224C91.9281 138.309 85.0506 145.466 84.9231 145.059C84.1806 145.013 71.8956 140.015 71.2506 139.713ZM95.0631 127.195C95.3327 127.653 95.4776 128.173 95.4831 128.705C95.4805 128.874 95.4392 129.041 95.3625 129.191C95.2857 129.342 95.1756 129.473 95.0406 129.573C94.4106 129.151 93.2181 128.365 91.8081 127.444C92.5806 125.912 94.2981 125.889 95.0331 127.195H95.0631ZM71.0631 132.027C74.2581 131.076 80.3256 125.187 82.3656 122.635C82.8566 122.773 83.3298 122.968 83.7756 123.216C83.0256 124.621 83.8281 126.161 84.1131 125.942C84.2706 125.821 83.9856 125.776 83.9406 125.036C83.9214 124.495 84.043 123.959 84.2931 123.481C85.3281 124.024 86.5431 124.734 87.5706 125.33C86.9406 126.742 87.6981 128.139 87.9606 127.935C88.2231 127.731 87.8406 127.777 87.7956 127.037C87.7773 126.551 87.8696 126.069 88.0656 125.625C89.1231 126.251 90.2031 126.901 91.1931 127.512C91.0405 127.889 90.98 128.296 91.0165 128.701C91.0531 129.105 91.1856 129.495 91.4031 129.838C91.4129 129.851 91.4252 129.861 91.4392 129.87C91.4532 129.878 91.4687 129.883 91.4847 129.885C91.5007 129.887 91.517 129.886 91.5326 129.882C91.5482 129.878 91.5628 129.87 91.5756 129.86C91.5884 129.85 91.5991 129.838 91.6072 129.824C91.6152 129.81 91.6205 129.794 91.6226 129.778C91.6247 129.762 91.6236 129.746 91.6194 129.73C91.6152 129.714 91.6079 129.7 91.5981 129.687C91.4633 129.387 91.3967 129.06 91.4032 128.731C91.4097 128.402 91.4891 128.078 91.6356 127.784C93.3831 128.856 94.7931 129.755 95.2281 130.049C95.1456 130.125 87.3231 137.131 84.6606 139.215C82.9131 138.754 73.7406 134.171 71.0631 132.027ZM71.3481 136.233C74.7456 137.743 82.4631 141.246 84.2406 141.586C84.5481 141.646 84.6681 141.669 85.2531 141.2C87.7506 139.185 95.8731 130.63 95.9481 130.721C95.9517 130.744 95.9517 130.767 95.9481 130.789V132.299C94.2756 133.65 84.9756 143.481 84.8256 143.012C84.0756 143.012 71.8881 138.007 71.2656 137.727C71.2506 137.41 71.3181 136.565 71.3481 136.233V136.233ZM85.0056 146.636C84.2556 147.067 72.8331 142.393 71.3031 141.442C71.2456 140.961 71.2181 140.477 71.2206 139.992C74.5056 141.623 84.0606 145.685 84.9381 145.647C86.2206 145.579 95.2881 135.304 95.9331 134.587C95.9405 134.972 95.9028 135.358 95.8206 135.734C95.6931 135.983 85.5006 146.357 85.0056 146.636V146.636ZM22.8681 104.077C22.9206 104.885 22.9581 105.587 22.9581 106.244C22.9581 106.344 22.9976 106.44 23.0679 106.511C23.1382 106.582 23.2336 106.621 23.3331 106.621C23.4325 106.621 23.5279 106.582 23.5982 106.511C23.6686 106.44 23.7081 106.344 23.7081 106.244C23.7081 105.542 23.6706 104.847 23.6181 104.024C23.6111 103.924 23.5649 103.831 23.4897 103.765C23.4144 103.699 23.3163 103.666 23.2168 103.673C23.1174 103.68 23.0248 103.727 22.9594 103.802C22.894 103.878 22.8611 103.977 22.8681 104.077V104.077ZM137.146 88.9394C137.097 88.9422 137.049 88.9549 137.005 88.9767C136.961 88.9985 136.921 89.0289 136.889 89.0662C136.857 89.1035 136.833 89.1469 136.817 89.1939C136.802 89.2408 136.796 89.2903 136.801 89.3395C136.846 90.0341 136.891 90.7816 136.891 91.5064C136.891 91.6065 136.93 91.7025 137 91.7733C137.071 91.8441 137.166 91.8839 137.266 91.8839C137.365 91.8839 137.46 91.8441 137.531 91.7733C137.601 91.7025 137.641 91.6065 137.641 91.5064C137.641 90.7514 137.596 89.9964 137.543 89.2867C137.54 89.2374 137.528 89.1892 137.506 89.1448C137.484 89.1005 137.454 89.061 137.417 89.0287C137.38 88.9963 137.337 88.9717 137.29 88.9564C137.244 88.941 137.194 88.9353 137.146 88.9394V88.9394ZM20.9256 102.197C21.025 102.197 21.1204 102.157 21.1907 102.087C21.2611 102.016 21.3006 101.92 21.3006 101.82C21.3006 101.72 21.2611 101.624 21.1907 101.553C21.1204 101.482 21.025 101.442 20.9256 101.442C20.0181 101.442 19.2606 101.51 18.5106 101.495C18.4104 101.495 18.3143 101.535 18.2427 101.605C18.1712 101.676 18.13 101.772 18.1281 101.873C18.1281 101.973 18.1676 102.069 18.2379 102.139C18.3082 102.21 18.4036 102.25 18.5031 102.25C19.2756 102.265 20.1231 102.235 20.9256 102.197ZM134.821 86.7046C133.921 86.7046 133.163 86.7574 132.406 86.765C132.306 86.765 132.211 86.8048 132.14 86.8755C132.07 86.9463 132.031 87.0424 132.031 87.1425C132.031 87.2426 132.07 87.3386 132.14 87.4094C132.211 87.4802 132.306 87.52 132.406 87.52C133.216 87.52 134.056 87.52 134.866 87.4596C134.965 87.4536 135.058 87.408 135.124 87.333C135.19 87.258 135.224 87.1595 135.218 87.0594C135.212 86.9593 135.167 86.8657 135.092 86.7991C135.018 86.7326 134.92 86.6986 134.821 86.7046V86.7046ZM22.6656 97.5313C22.7106 98.2259 22.7556 98.9733 22.7556 99.6981C22.7575 99.7976 22.7976 99.8925 22.8675 99.9629C22.9375 100.033 23.0317 100.074 23.1306 100.076C23.23 100.076 23.3254 100.036 23.3957 99.9651C23.4661 99.8943 23.5056 99.7983 23.5056 99.6981C23.5056 98.9431 23.4606 98.1881 23.4156 97.4784C23.4086 97.3783 23.3624 97.2851 23.2872 97.2192C23.2119 97.1534 23.1138 97.1204 23.0143 97.1274C22.9149 97.1344 22.8223 97.1809 22.7569 97.2566C22.6915 97.3324 22.6586 97.4312 22.6656 97.5313V97.5313ZM137.438 84.9605C137.438 84.2055 137.393 83.4505 137.341 82.7408C137.334 82.6407 137.287 82.5475 137.212 82.4816C137.137 82.4158 137.039 82.3827 136.939 82.3898C136.84 82.3968 136.747 82.4433 136.682 82.519C136.616 82.5948 136.584 82.6936 136.591 82.7937C136.636 83.4883 136.681 84.2357 136.681 84.9605C136.681 85.0606 136.72 85.1567 136.79 85.2275C136.861 85.2983 136.956 85.338 137.056 85.338C137.156 85.338 137.252 85.2985 137.323 85.2279C137.395 85.1573 137.436 85.0613 137.438 84.9605V84.9605ZM28.2006 102.099C28.2498 102.097 28.2982 102.085 28.343 102.065C28.3878 102.044 28.428 102.014 28.4614 101.978C28.4949 101.941 28.5208 101.899 28.5379 101.852C28.5549 101.806 28.5626 101.756 28.5606 101.706C28.553 101.608 28.5086 101.515 28.4363 101.448C28.3639 101.381 28.269 101.344 28.1706 101.344C27.2631 101.382 26.5056 101.412 25.7481 101.397C25.6486 101.397 25.5532 101.437 25.4829 101.507C25.4126 101.578 25.3731 101.674 25.3731 101.774C25.3731 101.874 25.4126 101.971 25.4829 102.041C25.5532 102.112 25.6486 102.152 25.7481 102.152C26.5506 102.167 27.3906 102.137 28.2006 102.099ZM142.096 86.6064C141.346 86.6442 140.513 86.6668 139.681 86.6668C139.631 86.6648 139.582 86.6729 139.535 86.6905C139.489 86.7082 139.447 86.7351 139.411 86.7697C139.375 86.8043 139.347 86.8457 139.327 86.8916C139.308 86.9375 139.298 86.9869 139.298 87.0368C139.298 87.1376 139.337 87.2344 139.407 87.3064C139.478 87.3784 139.573 87.4199 139.673 87.4218C140.528 87.4218 141.218 87.4218 142.126 87.3614C142.175 87.3595 142.223 87.3478 142.268 87.327C142.313 87.3062 142.353 87.2767 142.386 87.2403C142.42 87.2038 142.446 87.1611 142.463 87.1145C142.48 87.0679 142.488 87.0184 142.486 86.9688C142.476 86.8707 142.431 86.7794 142.359 86.7125C142.287 86.6456 142.194 86.6079 142.096 86.6064V86.6064ZM10.9656 79.7284C11.0631 79.8039 32.2131 76.648 33.1206 76.0893C33.1708 76.0524 33.211 76.0032 33.2372 75.9464C33.2634 75.8897 33.2749 75.8271 33.2706 75.7646C33.2706 74.7907 32.0031 65.6476 31.3956 63.3675C31.3206 63.0882 31.2456 62.8088 31.0731 62.7107C29.9256 62.0161 9.70558 65.8515 8.49808 66.6367C8.46536 66.6561 8.43708 66.6824 8.41511 66.7136C8.39314 66.7448 8.37797 66.7803 8.37058 66.8179C8.11558 67.7314 10.3131 79.2754 10.9656 79.7284V79.7284ZM8.82808 66.9991C10.2681 66.3422 28.6206 62.9598 30.7206 63.2241C31.2306 64.5453 32.5956 74.2244 32.6856 75.6438C31.6431 75.9534 11.2506 79.4792 11.1756 79.4943C11.1006 79.5094 11.0931 79.6 10.9356 79.1244C10.2756 77.1312 8.79058 68.7054 8.82808 66.9991V66.9991Z" fill="white"/>
<path d="M34.7711 76.7611C34.8119 76.6848 34.8301 76.5983 34.8236 76.5119C34.8236 75.3115 33.1136 61.9857 32.5061 60.9212C32.4585 60.8427 32.3911 60.7783 32.3107 60.7345C32.2304 60.6908 32.1399 60.6692 32.0486 60.672C29.5361 60.3625 8.3411 64.5301 6.9461 65.504C6.7511 65.6399 6.7811 65.9797 6.8036 66.3421C6.9236 68.3277 9.0536 81.3892 9.8036 81.3137C9.8861 81.3137 9.8561 81.2533 9.6611 81.6535C8.4911 84.077 6.2711 91.8384 6.3161 93.4013C6.3161 94.0581 6.4661 94.9113 7.1111 94.866C11.7386 94.2922 34.4261 90.6682 40.9511 89.3167C41.2061 89.2639 41.3711 89.0298 41.3636 88.6448C41.2866 88.0033 41.0934 87.3815 40.7936 86.8101C39.8786 85.0812 36.0836 78.2333 34.7711 76.7611ZM9.8486 81.0797C9.2636 80.3247 7.1111 67.316 7.2761 65.874C8.9261 65.0133 29.8361 60.9438 32.0261 61.276C32.6261 62.937 34.1786 74.934 34.2761 76.376C31.6211 77.2971 13.2386 80.2869 9.8486 81.0797ZM10.1786 81.3062C10.8086 81.1476 32.2661 77.5312 34.2311 77.0102C35.3036 78.0144 40.1486 86.6893 40.4636 87.4292C36.1586 88.1842 10.6211 92.4802 6.8636 93.054C6.9161 90.7663 9.2486 82.7709 10.1786 81.3062V81.3062Z" fill="white"/>
<path d="M12.9981 89.1353C13.6506 89.0371 27.4956 87.361 32.4981 85.9945C32.529 85.9865 32.5554 85.9665 32.5715 85.9389C32.5877 85.9112 32.5923 85.8783 32.5844 85.8473C32.5764 85.8162 32.5565 85.7896 32.5291 85.7734C32.5017 85.7571 32.469 85.7524 32.4381 85.7604C31.4556 85.9643 19.4706 87.5724 12.9831 88.9012C12.9652 88.898 12.9468 88.8989 12.9293 88.9039C12.9117 88.9089 12.8956 88.9178 12.882 88.93C12.8684 88.9422 12.8577 88.9574 12.8508 88.9743C12.8439 88.9913 12.841 89.0096 12.8421 89.0279C12.8433 89.0462 12.8486 89.064 12.8576 89.0799C12.8666 89.0958 12.8791 89.1095 12.8941 89.1198C12.9092 89.1302 12.9264 89.137 12.9444 89.1396C12.9624 89.1423 12.9808 89.1408 12.9981 89.1353V89.1353ZM23.1156 36.6024C22.8355 37.2394 22.5999 37.8953 22.4106 38.5654C22.3995 38.6729 22.4289 38.7807 22.4931 38.8674C23.2506 40.015 31.0131 48.8258 33.0381 50.064C33.3156 50.2377 33.6456 50.3585 33.8481 50.1093C35.3192 48.2667 37.2389 46.8388 39.4206 45.9644C41.1963 45.3319 43.0581 44.978 44.9406 44.9149C46.4406 44.779 46.7031 44.628 47.2806 43.639C47.9619 42.3374 48.8657 41.1668 49.9506 40.1811C51.334 38.9634 52.8695 37.9329 54.5181 37.1158C54.5923 37.0734 54.6504 37.0074 54.683 36.928C54.7156 36.8487 54.7209 36.7606 54.6981 36.6779C54.4446 36.0284 54.1093 35.4144 53.7006 34.8508C53.9706 34.7602 54.2706 34.6771 54.2706 34.4053C54.2706 33.6503 47.7306 24.1222 45.9156 22.3253C45.7281 22.1366 45.4581 21.8874 45.2106 21.9025C41.4606 22.1139 37.8081 25.6775 35.6931 28.7881C33.2706 28.6975 31.7031 28.4786 28.9431 29.6488C26.9947 30.4814 25.238 31.71 23.7831 33.2577C23.5581 33.4918 22.0281 35.1226 22.0056 35.2509C21.9831 35.3793 22.0281 35.3793 23.1156 36.6024V36.6024ZM53.1156 36.391C49.9881 36.927 47.9931 39.5469 46.5231 42.3932C45.8706 43.6616 45.9306 43.722 45.2406 43.7069C44.0341 43.6381 42.8237 43.6836 41.6256 43.8428C40.7468 43.9751 39.8828 44.1925 39.0456 44.4921C37.1406 45.1716 34.9581 47.346 33.7956 48.9617C33.7709 48.995 33.7395 49.0226 33.7035 49.0427C33.6675 49.0629 33.6276 49.0752 33.5865 49.0787C33.5455 49.0823 33.5041 49.0771 33.4652 49.0634C33.4262 49.0498 33.3906 49.028 33.3606 48.9995C30.9231 46.4702 26.6106 42.0308 24.4431 39.4789C24.3381 39.3657 24.5181 39.1996 24.6231 39.3204C26.0256 40.8304 29.6481 44.4468 33.5331 48.3804C34.8456 46.6967 36.8706 44.6582 38.8731 43.9485C39.9651 43.5564 41.1014 43.3028 42.2556 43.1935C43.3366 43.1109 44.4222 43.1109 45.5031 43.1935C45.9456 42.6801 48.1356 36.8515 53.1006 36.2022C53.1152 36.213 53.1271 36.2269 53.1356 36.2429C53.144 36.2589 53.1488 36.2767 53.1495 36.2948C53.1502 36.3129 53.1469 36.331 53.1397 36.3476C53.1326 36.3643 53.1218 36.3791 53.1081 36.391H53.1156ZM45.2031 22.5141C46.7031 23.5711 52.8081 32.6688 53.6031 34.2619C52.2236 34.7019 50.8919 35.2812 49.6281 35.9908C48.4314 36.5947 47.3836 37.4598 46.561 38.523C45.7384 39.5861 45.1618 40.8206 44.8731 42.1365C42.1806 37.7273 38.4231 32.8727 35.9256 29.3015C36.0756 29.2034 40.2906 22.8085 45.2031 22.5141V22.5141ZM29.1081 30.0641C31.8456 28.9542 33.3606 29.2109 35.6256 29.3091C37.8756 33.1747 41.9181 38.6258 44.5806 42.1969C42.1232 41.6116 39.5373 41.9696 37.3281 43.2011C36.0006 43.9561 34.3806 45.7681 33.3831 46.893C31.9431 45.7303 23.6331 36.8213 22.2981 35.3113C24.3531 32.9708 26.2506 31.2117 29.1081 30.0339V30.0641ZM15.3831 49.2637C15.1978 49.1328 14.9786 49.0588 14.7523 49.0507C14.526 49.0427 14.3022 49.101 14.1081 49.2184C13.9668 49.2819 13.8393 49.3727 13.7328 49.4858C13.6263 49.5989 13.5431 49.732 13.4877 49.8774C13.4323 50.0229 13.406 50.1779 13.4101 50.3337C13.4143 50.4894 13.4488 50.6428 13.5119 50.7851C13.5749 50.9273 13.6652 51.0557 13.7775 51.1629C13.8898 51.27 14.022 51.3539 14.1665 51.4096C14.311 51.4654 14.465 51.4919 14.6197 51.4877C14.7744 51.4835 14.9268 51.4487 15.0681 51.3853C15.2939 51.3356 15.4994 51.218 15.6572 51.0481C15.8151 50.8781 15.9179 50.6639 15.9521 50.4338C15.9863 50.2037 15.9501 49.9686 15.8485 49.7596C15.7469 49.5507 15.5846 49.3777 15.3831 49.2637V49.2637ZM14.8881 50.7737C14.3631 50.9398 14.0481 50.7737 13.9206 50.517C13.6806 49.981 13.9806 49.158 14.7606 49.3996C15.3081 49.6035 15.7506 50.5321 14.8881 50.8115V50.7737ZM53.5206 14.7149C53.7381 15.1604 54.7506 14.9943 55.1931 14.8508C55.4256 14.7753 55.5756 14.6923 55.5981 14.4658C55.6656 13.8995 55.7406 8.99203 55.4856 8.51638C55.4593 8.46651 55.4189 8.42557 55.3695 8.39871C55.3202 8.37185 55.264 8.36025 55.2081 8.36538C54.4079 8.36315 53.6118 8.48018 52.8456 8.71268C52.5381 8.90143 53.2506 14.2166 53.5206 14.7149ZM53.0031 8.89388C53.6959 8.79411 54.3966 8.76124 55.0956 8.79573C55.1406 9.35443 55.0206 14.194 55.0131 14.2695C54.6963 14.3838 54.3579 14.4251 54.0231 14.3903C53.9706 14.2166 53.8806 13.7485 53.7681 13.1596C53.4376 11.7525 53.1823 10.3285 53.0031 8.89388V8.89388ZM14.6556 42.8915C14.7276 42.9286 14.8073 42.948 14.8881 42.948C14.969 42.948 15.0487 42.9286 15.1206 42.8915C15.4104 42.7116 15.6402 42.4487 15.7806 42.1365C15.7997 42.0866 15.8056 42.0325 15.7977 41.9796C15.7898 41.9266 15.7684 41.8767 15.7356 41.8345C15.3756 41.4042 11.4456 36.8213 10.9656 37.1082C10.3763 37.4923 9.81714 37.9214 9.29312 38.3917C9.27201 38.4107 9.25509 38.434 9.24346 38.46C9.23183 38.486 9.22576 38.5142 9.22562 38.5427C9.21062 38.9353 13.5756 42.4536 14.6556 42.8915V42.8915ZM11.0556 37.3045C11.6031 37.7047 13.4481 39.9999 15.1581 42.0308C15.0846 42.1474 14.9935 42.2519 14.8881 42.3404C13.0903 41.182 11.3737 39.9005 9.75062 38.505C10.1575 38.0749 10.5936 37.6738 11.0556 37.3045V37.3045ZM22.8381 20.6492C23.0031 17.7198 24.6981 16.3608 26.4681 16.0135C25.9656 17.8708 26.0481 20.2868 27.8706 20.5964C28.7406 20.7398 29.1681 20.2868 29.7981 19.7583C32.4906 17.4933 30.3156 15.2283 27.2781 15.3869C28.4106 12.2612 31.0281 9.71683 34.5006 9.63378C34.5324 9.63378 34.563 9.62105 34.5855 9.5984C34.608 9.57575 34.6206 9.54502 34.6206 9.51298C34.6206 9.48094 34.608 9.45022 34.5855 9.42756C34.563 9.40491 34.5324 9.39218 34.5006 9.39218C30.7506 9.31668 27.8031 12.0347 26.6406 15.4322C24.6381 15.7795 22.6506 17.2895 22.5981 20.6039C22.5952 20.6198 22.5953 20.6361 22.5986 20.6519C22.6019 20.6677 22.6083 20.6827 22.6174 20.696C22.6264 20.7093 22.638 20.7207 22.6514 20.7295C22.6648 20.7383 22.6799 20.7444 22.6956 20.7474C22.7114 20.7504 22.7276 20.7502 22.7433 20.7469C22.7589 20.7435 22.7738 20.7371 22.7871 20.728C22.8003 20.7189 22.8116 20.7073 22.8204 20.6937C22.8291 20.6802 22.8352 20.6651 22.8381 20.6492V20.6492ZM27.1056 15.9229C28.2231 15.8474 29.8881 16.1947 30.3456 17.214C30.6081 17.7953 30.3456 18.5126 29.4156 19.2978C29.1631 19.5524 28.8751 19.7686 28.5606 19.9395C27.4356 20.4227 26.1906 19.026 27.1056 15.9229ZM29.2506 122.703C28.526 122.507 27.7699 122.46 27.0268 122.563C26.2837 122.666 25.5686 122.918 24.9236 123.303C24.2785 123.689 23.7166 124.2 23.2709 124.808C22.8252 125.415 22.5046 126.106 22.3281 126.84C21.9949 128.365 22.2771 129.96 23.1126 131.276C23.9481 132.591 25.2684 133.519 26.7831 133.854C28.2978 134.189 29.8829 133.905 31.1895 133.064C32.4962 132.223 33.4174 130.894 33.7506 129.369C33.8929 128.634 33.8893 127.877 33.7398 127.143C33.5903 126.409 33.298 125.712 32.8796 125.093C32.4613 124.473 31.9253 123.943 31.3024 123.532C30.6796 123.122 29.9823 122.84 29.2506 122.703V122.703ZM31.5681 128.856C31.2672 130.064 30.5468 131.124 29.5371 131.844C28.5275 132.564 27.2952 132.897 26.0631 132.782C24.9321 132.337 23.9932 131.505 23.4115 130.432C22.8299 129.359 22.6428 128.114 22.8831 126.915C23.1638 125.678 23.8775 124.583 24.8938 123.832C25.9101 123.081 27.1611 122.723 28.4181 122.823C29.5603 123.298 30.4994 124.164 31.0701 125.267C31.6408 126.371 31.8065 127.641 31.5381 128.856H31.5681Z" fill="white"/>
<path d="M39.2416 124.855C38.5887 124.628 37.8889 124.574 37.2091 124.696C36.9273 124.046 36.5805 123.426 36.1741 122.847C36.6616 122.401 37.9966 121.163 37.6741 120.582C36.5263 119.2 35.1637 118.014 33.6391 117.071C33.0025 116.712 32.3014 116.484 31.5766 116.399C31.0966 116.467 29.9566 118.347 29.7016 118.77C29.5366 118.77 28.9516 118.581 28.9066 118.558C28.9066 118.015 28.7491 116.052 28.2616 115.825C27.7164 115.623 27.1503 115.484 26.5741 115.41C26.0416 115.327 21.2491 116.21 20.8966 116.86C20.6641 117.297 21.2041 118.951 21.3616 119.411C20.9571 119.636 20.5687 119.888 20.1991 120.166C19.4491 120.702 19.6516 120.68 19.5166 120.619C19.3534 120.541 19.1786 120.49 18.9991 120.468C18.4 120.115 17.6975 119.981 17.0116 120.091C16.3216 120.317 14.6941 124.047 14.4316 125.006C14.3457 125.248 14.3224 125.508 14.3641 125.761C14.5441 126.259 15.7441 126.659 16.2466 126.818C16.1078 127.789 16.1078 128.776 16.2466 129.747C15.5866 129.929 14.2141 130.336 14.2891 131.016C14.3641 131.695 16.1191 136.18 16.8466 136.535C17.2451 136.759 17.6858 136.897 18.1404 136.94C18.5951 136.983 19.0536 136.93 19.4866 136.784C19.7305 136.661 19.966 136.523 20.1916 136.369C20.4916 136.595 20.8066 136.799 21.1291 136.995C20.8966 137.577 20.3791 138.875 20.5441 139.464C20.6266 139.774 20.8741 139.872 21.2191 140C22.1716 140.348 27.3016 141.586 28.0816 141.45C28.3741 141.405 28.5316 141.095 28.6216 140.801C28.7882 140.13 28.8862 139.445 28.9141 138.755C29.2993 138.716 29.6823 138.658 30.0616 138.581C30.2932 138.991 30.5896 139.361 30.9391 139.676C31.3216 139.947 31.6441 139.812 32.0791 139.532C32.2891 139.804 32.6041 140.181 32.9416 140.219C33.7891 140.317 37.2916 136.995 37.6516 136.316C37.9516 135.75 36.8566 134.738 36.3691 134.292C36.8965 133.494 37.3105 132.625 37.5991 131.71C38.14 131.792 38.6875 131.823 39.2341 131.801C39.4816 131.801 39.7666 131.71 39.8716 131.476C40.3291 130.427 40.1941 126.448 39.8716 125.436C39.8266 125.142 39.4891 124.946 39.2416 124.855V124.855ZM39.4216 125.55C39.6766 126.531 39.7591 130.238 39.3841 131.197C38.7356 131.261 38.0813 131.231 37.4416 131.106C37.3733 131.095 37.3031 131.109 37.2448 131.147C37.1865 131.184 37.1443 131.243 37.1266 131.31C36.8279 132.331 36.3642 133.295 35.7541 134.164C35.7106 134.222 35.691 134.294 35.6994 134.366C35.7078 134.438 35.7435 134.503 35.7991 134.549C36.3253 134.969 36.7724 135.48 37.1191 136.059C36.7441 136.678 33.8116 139.381 33.0016 139.608C32.8816 139.608 32.5516 139.155 32.4691 139.034C32.192 138.615 31.9415 138.179 31.7191 137.728C31.6866 137.662 31.6309 137.611 31.5629 137.584C31.495 137.558 31.4196 137.558 31.3516 137.584C29.1766 138.407 28.3516 137.924 28.3516 138.468C28.3526 139.282 28.2208 140.09 27.9616 140.861C26.199 140.668 24.4633 140.278 22.7866 139.698C22.8676 138.892 23.0911 138.107 23.4466 137.38C23.6716 136.875 22.7716 137.018 21.0916 135.297C21.0375 135.246 20.9665 135.218 20.8928 135.218C20.8191 135.218 20.7482 135.246 20.6941 135.297C19.9441 135.916 18.9691 136.52 18.7741 136.422C18.3916 136.233 16.6291 132.209 16.5241 131.393C17.0575 131.019 17.6631 130.762 18.3016 130.638C18.3697 130.619 18.4285 130.575 18.4671 130.516C18.5057 130.456 18.5215 130.384 18.5116 130.314C18.3278 129.244 18.3278 128.151 18.5116 127.082C18.523 127.016 18.5093 126.949 18.4731 126.893C18.4369 126.837 18.381 126.796 18.3166 126.78C17.7512 126.631 17.2068 126.41 16.6966 126.123C16.5316 126.003 16.5466 126.01 16.5616 125.882C17.047 124.119 17.8255 122.452 18.8641 120.952C19.2691 120.838 20.3641 121.646 20.7391 121.933C20.7783 121.971 20.8307 121.993 20.8853 121.993C20.9399 121.993 20.9924 121.971 21.0316 121.933C21.3762 121.573 21.7473 121.24 22.1416 120.937C23.2816 120.068 23.5891 120.182 23.4916 119.88C23.1468 119.122 22.9531 118.304 22.9216 117.471C23.0378 117.374 23.1697 117.297 23.3116 117.245C24.0118 116.966 24.7312 116.739 25.4641 116.565C26.3525 116.316 27.2655 116.166 28.1866 116.12C28.3441 116.188 28.4866 116.875 28.5241 117.086C28.8016 118.596 28.6141 118.906 28.8316 118.928C30.9691 119.14 31.4041 119.736 31.5541 119.472C31.97 118.74 32.4547 118.05 33.0016 117.411C33.1591 117.252 33.1516 117.177 33.6241 117.448C35.0357 118.377 36.2999 119.515 37.3741 120.823C37.4866 121.02 36.5116 122.061 35.7991 122.673C35.5516 122.892 35.9041 122.99 36.5491 124.228C37.1941 125.467 37.0441 125.814 37.3891 125.738C38.0542 125.578 38.7386 125.514 39.4216 125.55V125.55ZM143.514 62.4618C141.942 61.8153 140.293 61.3763 138.609 61.1556C137.379 60.9593 135.932 60.763 134.709 60.6045C135.887 58.9284 139.374 54.6853 139.959 53.6509C140.124 53.3716 139.809 52.979 139.577 52.7449C138.272 51.3406 135.752 50.8121 133.817 50.5101C132.707 50.3289 128.072 49.7551 127.284 50.1326C126.339 50.5856 119.349 61.1556 119.139 62.7638C119.139 63.0356 119.229 63.1413 119.492 63.2394C120.594 63.6471 125.567 64.2813 126.677 64.5456C125.177 67.1881 118.509 76.1197 117.857 77.3806C117.699 77.6977 117.797 77.8864 117.984 77.9468C118.659 78.2165 119.354 78.4336 120.062 78.5961C120.332 78.6792 120.924 78.3092 121.787 77.7807C125.657 75.4402 142.262 64.4021 143.537 62.9752C143.572 62.9417 143.599 62.901 143.618 62.8558C143.636 62.8106 143.644 62.762 143.642 62.7133C143.64 62.6646 143.627 62.6169 143.605 62.5735C143.583 62.5301 143.552 62.492 143.514 62.4618V62.4618ZM127.397 71.5218C121.022 75.7573 118.869 76.9955 118.794 77.0484C119.822 75.4704 126.204 66.6671 127.299 64.5607C127.318 64.52 127.328 64.4755 127.328 64.4305C127.328 64.3856 127.317 64.3412 127.298 64.3007C127.279 64.2601 127.25 64.2245 127.216 64.1963C127.181 64.1682 127.14 64.1482 127.097 64.1379C126.347 63.8661 120.887 63.2772 119.597 62.8166C119.762 61.4123 126.572 50.797 127.397 50.3742C128.222 49.9514 136.224 50.9103 137.724 51.9899C136.937 53.5377 132.587 58.9586 131.882 60.2194C131.739 60.4761 131.694 60.7253 131.972 60.7932C132.249 60.8612 139.299 61.6917 140.837 62.1975C138.962 63.7755 129.497 70.1024 127.397 71.4916V71.5218ZM79.2841 25.3611C79.2841 25.429 79.3291 25.5121 79.4416 25.95C79.4711 26.045 79.536 26.1248 79.6227 26.1726C79.7094 26.2205 79.8112 26.2327 79.9066 26.2067C80.0021 26.1786 80.0826 26.1136 80.1304 26.0258C80.1782 25.938 80.1894 25.8347 80.1616 25.7386C80.0866 25.4441 80.0191 25.195 79.9741 25.0742C79.9304 24.9913 79.8576 24.9277 79.7699 24.8959C79.6822 24.8641 79.5858 24.8664 79.4997 24.9022C79.4135 24.938 79.3437 25.0049 79.3038 25.0897C79.264 25.1746 79.2569 25.2713 79.2841 25.3611V25.3611Z" fill="white"/>
</svg>
